<?xml version="1.0" standalone="no"?>
<!DOCTYPE svg PUBLIC "-//W3C//DTD SVG 20010904//EN"
 "http://www.w3.org/TR/2001/REC-SVG-20010904/DTD/svg10.dtd">
<svg version="1.0" xmlns="http://www.w3.org/2000/svg"
 width="1600.000000pt" height="885.000000pt" viewBox="0 0 1600.000000 885.000000"
 preserveAspectRatio="xMidYMid meet">
<metadata>
Created by potrace 1.13, written by Peter Selinger 2001-2015
</metadata>
<g transform="translate(0.000000,885.000000) scale(0.100000,-0.100000)"
fill="#000000" stroke="none">
<path d="M0 6143 c0 -1976 3 -2710 11 -2720 9 -9 8 -13 0 -13 -6 0 -11 -13
-11 -30 0 -25 4 -30 25 -30 16 0 25 -6 25 -15 0 -8 5 -15 10 -15 6 0 10 -8 10
-17 1 -17 2 -17 15 1 10 13 23 17 45 14 17 -3 33 -1 36 4 3 4 10 8 15 8 6 0 7
-4 4 -10 -3 -5 -1 -10 4 -10 11 0 14 11 9 28 -2 4 -9 7 -16 7 -7 0 -17 6 -21
14 -7 11 -15 11 -42 2 -25 -8 -35 -8 -43 0 -8 9 -6 10 6 6 10 -3 20 -2 24 4 3
6 18 10 32 9 74 -5 112 0 112 16 0 11 6 14 22 8 31 -9 35 -14 19 -23 -10 -7
-10 -12 0 -28 17 -28 5 -53 -25 -53 -21 0 -25 -5 -28 -38 -2 -31 -7 -37 -25
-36 -16 0 -24 -7 -28 -27 -7 -32 -32 -38 -127 -29 l-58 6 0 -28 c0 -25 3 -28
38 -29 20 -1 44 -2 52 -3 8 -2 23 -3 33 -4 10 -1 15 -7 12 -12 -10 -16 12 -12
30 6 12 13 19 13 30 4 8 -6 19 -9 25 -5 11 7 13 -5 5 -27 -4 -10 -22 -13 -70
-10 l-64 4 2 -29 c2 -26 6 -30 31 -31 15 0 31 -3 34 -7 11 -11 -15 -40 -39
-43 -13 -2 -28 -8 -34 -12 -5 -5 -27 -11 -48 -15 -32 -6 -37 -11 -37 -34 0
-14 5 -33 10 -41 9 -13 11 -13 20 0 9 13 11 13 20 0 9 -13 12 -13 21 3 8 14
14 16 25 7 10 -9 22 -9 43 -2 16 6 32 7 36 4 7 -7 13 -9 45 -11 35 -2 21 -20
-37 -46 -43 -20 -65 -25 -93 -20 -28 5 -39 3 -43 -8 -8 -21 1 -27 34 -20 19 3
29 1 29 -6 0 -7 9 -9 23 -6 12 3 34 2 47 -3 19 -7 4 -10 -60 -9 -61 0 -90 4
-103 15 -16 14 -17 10 -17 -66 0 -80 0 -82 25 -82 18 0 23 -4 19 -15 -4 -10 0
-15 15 -15 12 0 21 6 21 15 0 15 14 17 127 19 37 1 54 -3 58 -13 7 -18 -2 -27
-38 -35 -24 -6 -30 -3 -34 14 -4 16 -13 20 -44 20 -37 0 -39 -2 -39 -31 0 -27
-3 -30 -28 -28 -15 2 -33 -1 -41 -5 -17 -11 -30 9 -24 35 3 10 0 19 -6 19 -6
0 -11 -13 -11 -30 0 -42 25 -51 133 -49 86 1 93 3 115 28 l22 26 -2 -25 c-3
-22 1 -25 34 -28 22 -2 38 1 38 7 0 6 -9 11 -20 11 -11 0 -20 7 -20 15 0 8 -4
15 -10 15 -13 0 -13 67 0 75 5 3 10 -1 10 -9 0 -22 19 -30 36 -15 8 6 18 9 22
5 4 -4 -4 -15 -16 -25 -23 -17 -23 -18 -5 -40 l19 -23 54 37 c30 20 61 44 68
53 8 11 15 13 22 6 12 -12 -45 -68 -60 -59 -9 5 -70 -48 -70 -60 0 -8 93 -5
135 4 22 5 71 12 109 16 55 6 69 10 73 26 4 13 14 19 34 19 35 0 40 -26 7 -40
-20 -8 -19 -9 13 -9 21 -1 42 5 49 14 7 8 27 15 44 15 26 1 29 2 15 13 -8 7
-18 20 -22 30 -4 11 -17 17 -36 17 -16 0 -32 4 -35 9 -7 11 -73 8 -98 -3 -10
-5 -18 -14 -18 -21 0 -16 -18 -30 -27 -21 -3 3 0 12 7 21 11 13 8 15 -24 15
-20 0 -36 5 -36 10 0 6 23 10 50 10 40 0 50 3 50 16 0 17 27 43 44 44 4 0 5
-7 2 -16 -6 -15 0 -16 40 -10 26 3 60 6 75 6 16 0 38 9 49 20 27 27 43 25 38
-5 -7 -35 18 -54 37 -29 8 10 15 24 15 31 0 19 20 26 36 12 20 -17 34 3 34 49
0 17 5 32 10 32 6 0 13 0 16 0 4 0 8 -18 10 -40 3 -29 0 -42 -11 -46 -27 -11
-16 -24 19 -24 27 0 40 -7 60 -33 14 -17 33 -41 42 -51 17 -18 16 -19 -15 -13
-24 5 -31 3 -28 -6 2 -6 17 -13 33 -13 16 -1 34 -2 39 -4 6 -1 56 -1 113 0 56
1 102 -2 102 -7 -1 -29 -20 -36 -89 -34 -45 2 -71 -2 -71 -8 0 -6 15 -12 33
-12 36 -2 37 -2 -106 -20 -48 -7 -87 -16 -87 -20 0 -5 -17 -9 -38 -9 -21 0
-43 -5 -48 -10 -6 -6 -44 -11 -86 -12 -61 -1 -75 -4 -71 -15 5 -13 54 -13 147
1 6 0 11 -6 13 -14 6 -31 -14 -41 -88 -45 -85 -5 -196 -23 -220 -35 -41 -21
-101 -31 -115 -19 -11 9 -40 9 -127 -1 -61 -7 -116 -17 -122 -22 -9 -9 46 -5
133 8 17 3 32 1 32 -4 0 -18 -26 -32 -60 -33 l-35 -2 35 -7 c19 -4 26 -8 15
-9 -11 -1 -31 -4 -44 -8 -19 -5 -23 -3 -19 8 4 11 -4 13 -38 10 -35 -2 -44 0
-44 13 0 12 -12 15 -64 13 -36 -1 -68 -5 -72 -10 -4 -4 -18 -7 -32 -7 -14 0
-26 -7 -29 -18 -3 -14 -16 -18 -55 -20 -59 -3 -68 -7 -68 -33 0 -19 4 -20 43
-14 23 3 50 9 60 11 10 3 17 0 17 -8 0 -9 -22 -19 -60 -26 l-60 -13 0 -140 c0
-129 1 -140 18 -135 9 2 40 7 68 11 42 5 52 3 57 -9 5 -12 0 -16 -22 -16 -15
0 -49 -3 -75 -6 l-46 -7 0 -46 0 -47 35 4 c22 3 40 12 46 23 5 11 14 17 20 14
5 -4 6 -11 3 -17 -4 -6 -1 -13 5 -17 7 -4 -15 -15 -49 -24 l-60 -17 0 -85 c0
-69 3 -85 15 -85 8 0 15 -4 15 -9 0 -4 23 -6 51 -3 37 3 50 2 45 -7 -4 -6 -18
-11 -32 -11 -14 0 -35 -5 -46 -11 -18 -9 -24 -8 -35 6 -10 15 -13 -111 -13
-734 l0 -751 321 0 320 1 21 35 c11 19 23 33 25 30 3 -3 -2 -15 -11 -28 -9
-12 -16 -26 -16 -30 0 -5 60 -8 134 -8 98 0 136 3 139 13 4 9 6 9 6 0 1 -9 25
-13 86 -13 l85 0 0 30 c0 22 -4 28 -15 24 -8 -4 -15 -1 -15 5 0 6 3 11 8 12 4
0 17 2 30 3 23 3 28 -9 13 -33 -8 -13 7 -41 22 -41 7 0 -1 119 -9 131 -3 5 2
9 10 9 10 0 15 -8 13 -22 -2 -20 2 -23 32 -21 44 2 56 15 40 41 -7 12 -10 24
-6 28 10 10 37 -16 31 -31 -7 -18 7 -24 34 -14 12 5 22 17 22 28 0 11 10 29
22 41 12 11 18 23 13 27 -4 5 -10 2 -12 -4 -5 -15 -43 -18 -43 -4 0 5 7 11 15
15 10 4 15 20 15 50 0 34 -3 44 -13 40 -14 -5 -57 -91 -57 -113 0 -7 -4 -10
-9 -6 -6 3 -4 24 4 53 8 26 15 48 15 50 0 1 -19 -1 -42 -4 -52 -8 -68 -26 -68
-76 0 -63 -18 -43 -22 24 -4 87 1 128 18 128 8 0 14 7 14 15 0 8 -8 15 -17 15
-14 0 -15 2 -4 13 10 10 18 5 41 -23 27 -32 29 -33 30 -12 0 23 14 30 25 12
11 -18 25 -10 42 25 13 26 20 32 29 24 10 -8 15 -4 20 18 4 15 11 31 16 34 9
6 14 86 5 95 -3 4 -9 -7 -12 -22 -13 -56 -16 -61 -28 -36 -5 12 -18 22 -28 22
-10 0 -21 5 -24 10 -3 6 -1 10 6 10 7 0 9 3 6 6 -4 4 -12 2 -20 -4 -7 -6 -22
-10 -32 -8 -11 2 -24 -2 -28 -8 -5 -6 -5 -1 -2 12 5 18 2 22 -14 22 -24 0 -27
12 -7 29 11 9 15 9 18 -1 4 -10 9 -8 22 5 10 9 22 17 27 17 5 0 9 9 9 20 0 31
20 24 21 -7 1 -19 3 -22 6 -10 3 12 11 17 22 14 10 -2 18 1 19 7 0 6 9 34 19
61 l18 50 5 -35 6 -35 8 35 c5 19 15 44 22 55 16 23 19 75 4 75 -5 0 -10 -8
-10 -17 -1 -10 -7 -29 -15 -43 -15 -26 -19 -18 -15 29 1 13 -4 27 -12 32 -10
7 -11 12 0 29 18 29 15 103 -5 139 -10 17 -21 31 -25 31 -5 0 -8 6 -8 13 0 6
-9 23 -20 37 -27 34 -25 48 3 22 33 -31 42 -27 17 7 -26 37 -99 96 -107 87 -4
-4 3 -13 15 -22 25 -17 30 -36 8 -28 -8 3 -24 1 -35 -5 -11 -6 -41 -12 -67
-13 -25 -2 -41 -4 -35 -6 13 -4 15 -32 3 -32 -23 0 -63 28 -73 53 -6 15 -15
27 -20 27 -5 0 -9 5 -9 10 0 6 9 10 21 10 15 0 19 4 15 16 -5 14 -4 15 8 5 16
-13 32 1 21 19 -10 16 7 12 27 -7 24 -21 41 -5 33 30 -6 22 -12 25 -43 24 -31
-2 -37 1 -40 21 -2 12 -8 22 -13 22 -6 0 -5 8 1 20 6 11 15 20 21 20 6 0 26
12 46 27 l36 27 -8 -24 -7 -25 23 21 c55 47 131 87 172 89 23 1 50 6 61 10 16
7 17 6 6 -14 -11 -21 -10 -22 12 -10 13 7 28 20 35 29 7 10 23 20 36 22 32 6
33 -25 1 -43 -23 -12 -24 -14 -7 -20 16 -7 17 -8 1 -8 -10 -1 -18 -8 -18 -16
0 -8 -8 -15 -18 -15 -26 0 -34 -11 -21 -26 11 -14 58 -10 91 8 14 6 16 5 12
-7 -5 -11 -2 -13 10 -9 18 7 20 -3 7 -25 -8 -12 -18 -13 -58 -4 -43 10 -77 7
-45 -4 6 -3 12 -9 12 -14 0 -4 -7 -6 -15 -3 -27 11 -16 -16 13 -29 15 -6 30
-17 34 -23 5 -8 21 -9 50 -4 32 6 47 5 59 -6 8 -8 21 -14 27 -14 17 0 15 -15
-3 -30 -12 -10 -13 -16 -4 -26 9 -11 7 -15 -5 -20 -13 -5 -16 -19 -15 -63 1
-49 -12 -126 -28 -171 -3 -8 -6 -51 -5 -94 1 -44 -3 -85 -7 -90 -5 -6 -11 -47
-15 -91 -3 -44 -7 -84 -7 -90 -4 -53 7 -117 23 -132 16 -14 16 -18 4 -32 -8
-9 -16 -38 -17 -64 -3 -57 -14 -79 -24 -48 l-7 22 -17 -23 c-18 -23 -49 -124
-40 -131 2 -2 21 -7 42 -10 37 -6 37 -5 37 29 0 19 -4 34 -10 34 -5 0 -10 7
-10 15 0 8 6 15 14 15 16 0 49 -47 49 -70 0 -8 4 -20 9 -27 6 -8 -1 -17 -22
-29 -30 -19 -46 -46 -35 -63 5 -10 85 66 85 81 0 4 6 8 14 8 8 0 17 6 19 13 4
9 6 9 6 0 1 -7 8 -13 16 -13 8 0 15 -8 15 -19 0 -21 38 -35 56 -20 8 6 13 3
17 -10 5 -21 -23 -38 -43 -26 -5 3 -10 2 -10 -4 0 -6 -19 -16 -42 -22 -24 -7
-52 -21 -63 -32 l-20 -19 20 10 c11 5 46 12 79 15 51 5 56 4 40 -8 -11 -8 -31
-15 -46 -15 -38 0 -58 -10 -58 -27 0 -11 6 -13 23 -8 12 3 42 11 66 16 24 5
49 13 55 18 6 4 31 11 56 15 l45 6 -27 -25 c-16 -13 -28 -27 -28 -30 0 -3 904
-5 2009 -5 l2009 0 24 29 c22 25 27 27 43 15 10 -8 29 -14 42 -14 14 0 23 -6
23 -16 0 -10 7 -14 23 -12 18 2 23 10 25 45 2 29 8 43 18 43 8 0 14 7 14 15 0
32 29 1 36 -38 l8 -42 8 55 c17 119 16 118 42 113 20 -4 25 -13 30 -54 5 -37
10 -47 21 -43 20 8 19 -5 -2 -28 -13 -14 -13 -18 -2 -19 65 -6 79 -12 79 -35
0 -8 5 -14 10 -14 6 0 10 15 10 33 1 26 2 29 11 14 11 -18 64 -24 73 -8 4 5
-3 7 -14 4 -12 -3 -20 0 -20 8 0 7 -3 9 -7 6 -8 -8 -33 11 -33 25 0 6 6 6 14
-1 11 -9 17 -8 29 3 8 8 16 13 18 12 5 -5 127 -17 164 -16 16 0 32 6 36 12 6
9 13 8 26 -4 10 -9 32 -19 48 -21 26 -4 30 -8 29 -35 -2 -28 0 -30 13 -17 18
19 24 19 17 0 -4 -9 0 -15 9 -15 8 0 18 6 20 13 4 9 6 9 6 0 2 -27 32 -12 38
18 3 19 14 34 25 36 10 3 18 13 18 23 0 10 3 27 7 37 6 13 9 3 13 -32 5 -50 5
-50 43 -53 37 -3 43 -22 7 -22 -10 0 -21 -4 -25 -10 -3 -5 20 -9 60 -9 50 1
65 4 65 15 0 11 8 14 30 10 16 -2 33 0 36 6 3 5 21 8 39 6 19 -1 37 1 41 5 4
4 -9 7 -29 7 -20 0 -37 4 -37 10 0 5 6 7 13 4 21 -8 67 14 67 31 0 8 5 15 10
15 6 0 10 -11 10 -25 0 -14 6 -25 13 -25 8 0 7 -3 -3 -10 -18 -11 -11 -18 28
-29 34 -10 42 -6 42 20 0 9 7 19 15 23 8 3 15 13 15 21 0 9 5 13 10 10 16 -10
12 -45 -5 -45 -8 0 -15 -4 -15 -10 0 -5 5 -10 11 -10 6 0 17 -7 25 -15 21 -20
399 -23 407 -2 4 9 6 9 6 0 1 -10 55 -13 236 -13 202 0 235 2 235 15 0 8 9 15
20 15 11 0 20 -6 20 -13 0 -8 15 -13 43 -14 l42 -2 -32 16 c-54 26 -40 36 40
28 80 -8 161 -22 135 -24 -9 -1 -20 -6 -23 -11 -4 -6 16 -10 52 -9 l58 1 -34
12 c-27 10 -31 14 -18 19 27 10 20 25 -14 32 -21 5 -34 3 -40 -6 -6 -10 -13
-10 -34 -1 -14 7 -37 12 -50 12 -14 0 -25 5 -25 11 0 8 35 10 113 8 115 -4
152 -15 141 -44 -3 -8 7 -17 27 -24 42 -15 42 -15 37 14 -6 28 -4 29 23 15 10
-6 19 -18 20 -28 0 -14 2 -14 9 3 9 19 9 19 16 -2 l6 -23 489 0 488 0 -20 37
-21 38 36 -39 c20 -21 36 -34 36 -28 0 6 -7 18 -16 27 -21 21 -12 30 16 15 15
-8 25 -8 34 -1 7 6 16 8 19 4 6 -6 11 11 8 30 0 4 3 7 8 7 15 0 32 -58 18 -63
-7 -2 14 -2 45 0 34 2 58 0 58 -5 0 -6 19 -5 47 2 42 11 49 16 58 48 6 22 15
33 23 30 8 -2 12 2 10 13 -2 10 3 20 9 22 9 3 13 -10 13 -46 0 -50 4 -56 37
-52 6 1 14 -8 18 -19 5 -17 15 -20 60 -20 56 0 65 8 65 56 0 13 5 24 10 24 6
0 10 -9 10 -19 0 -11 5 -23 10 -26 8 -5 7 -11 -1 -21 -9 -12 -5 -14 30 -14 31
0 41 4 41 16 0 11 6 14 20 9 15 -5 18 -3 14 9 -4 11 -1 16 10 16 10 0 16 -9
16 -25 0 -20 5 -25 27 -25 24 0 25 1 10 18 -15 16 -15 22 2 77 11 33 20 56 20
50 1 -5 8 -1 16 9 8 11 15 18 16 15 0 -2 2 -13 4 -24 2 -11 7 -39 10 -63 4
-24 13 -46 21 -49 12 -4 12 -8 -3 -19 -16 -12 -12 -13 34 -14 28 0 55 5 58 10
7 12 55 14 55 3 0 -13 53 -13 76 -2 12 6 25 24 28 40 3 16 11 29 19 29 16 0
47 51 47 78 0 11 7 25 15 32 8 7 15 19 15 26 0 8 6 14 14 14 9 0 15 -20 19
-66 7 -74 25 -110 63 -124 28 -11 31 -27 7 -33 -10 -3 93 -5 228 -6 218 -1
248 1 253 15 5 13 14 15 44 9 20 -4 40 -12 44 -18 6 -9 8 -9 8 0 0 9 7 10 26
3 41 -16 891 -13 898 3 5 9 7 9 12 -1 5 -10 256 -12 1227 -12 1073 1 1220 3
1203 15 -19 15 -19 16 9 45 26 27 30 28 45 15 19 -17 46 -20 55 -5 3 6 -4 10
-18 10 -33 0 -70 33 -55 48 9 9 16 8 30 -5 17 -15 19 -15 33 3 8 10 15 15 16
9 1 -5 2 -14 4 -20 1 -5 3 -34 3 -62 l2 -53 166 0 c133 0 169 3 178 14 6 8 28
18 49 21 33 6 37 5 37 -13 0 -19 7 -20 101 -21 l100 0 -6 29 c-7 32 6 39 35
20 13 -9 13 -12 -2 -21 -41 -24 -12 -29 162 -29 l179 0 1 344 c0 266 -3 346
-12 350 -10 5 -10 7 0 12 8 4 12 29 12 74 0 64 -2 69 -22 72 -18 2 -24 11 -28
38 -4 25 -7 30 -12 18 -6 -16 -10 -16 -47 -1 -78 30 -39 63 45 38 27 -8 52
-15 57 -15 4 0 7 171 7 380 0 377 0 380 -20 368 -17 -11 -23 -9 -42 9 -28 29
-16 41 24 25 18 -6 34 -9 37 -7 11 12 -20 27 -70 34 -70 9 -76 14 -81 56 l-4
35 59 0 c32 0 67 -5 78 -10 19 -11 19 -2 19 523 0 401 -3 536 -12 545 -9 9 -9
12 0 12 9 0 12 69 12 280 0 242 -2 280 -15 280 -8 0 -15 5 -15 10 0 6 7 13 15
16 22 9 20 74 -2 74 -15 0 -15 1 0 18 16 17 17 215 17 2645 l0 2627 -4999 0
c-2750 0 -5002 -4 -5005 -8 -7 -11 -7 -270 0 -445 l7 -148 -26 12 -25 11 6
137 c3 75 6 204 6 286 l1 150 -2983 3 -2982 2 0 -2707z m5996 1842 c-3 -8 -1
-15 5 -15 6 0 7 -5 4 -10 -3 -6 1 -13 9 -16 9 -3 16 -12 16 -20 0 -8 -6 -11
-17 -7 -17 6 -17 5 -2 -13 12 -14 17 -44 18 -114 2 -66 6 -99 17 -111 8 -8 14
-30 14 -48 l0 -33 -26 31 c-23 28 -25 36 -21 101 4 71 4 71 -26 87 -24 12 -35
13 -49 4 -26 -16 -27 -15 -16 31 5 23 8 51 6 62 -3 26 27 71 41 61 6 -3 14 1
17 9 3 9 8 16 11 16 3 0 3 -7 -1 -15z m-64 -448 c-2 -20 3 -38 11 -45 10 -9
12 -24 7 -56 -5 -33 -3 -46 7 -50 18 -7 40 2 47 20 4 12 2 12 -14 4 -34 -18
-21 4 19 32 l38 27 7 -52 c3 -29 6 -77 6 -108 0 -31 7 -73 15 -92 21 -50 20
-51 -18 -28 -22 14 -37 17 -47 11 -13 -8 -12 -10 3 -10 19 0 24 -30 5 -30 -10
0 -10 -2 0 -9 7 -4 12 -12 11 -17 -1 -5 0 -11 1 -14 1 -3 4 -23 5 -45 2 -22 4
-41 4 -42 1 -2 1 -6 2 -10 0 -5 5 -14 11 -20 8 -10 5 -13 -13 -14 -16 -1 -18
-3 -7 -6 19 -5 31 -30 18 -38 -15 -9 -12 -23 7 -27 17 -3 19 -14 24 -103 1
-27 7 -56 13 -64 17 -22 34 -81 26 -86 -5 -3 -7 -64 -6 -135 2 -71 -1 -127 -6
-124 -4 3 -6 9 -3 14 3 4 -2 10 -10 14 -18 7 -47 -3 -40 -14 7 -12 -36 -20
-54 -10 -13 7 -10 10 12 15 37 10 30 26 -18 39 -47 13 -64 42 -19 32 l29 -6
-28 16 c-21 11 -26 20 -22 35 4 11 2 19 -5 19 -6 0 -9 4 -5 9 3 6 18 6 38 1
29 -9 30 -8 13 5 -11 8 -26 15 -33 15 -8 0 -13 12 -13 31 l0 30 48 -6 47 -7
-29 16 c-15 9 -34 16 -41 16 -7 0 -18 7 -25 15 -10 12 -10 15 3 15 9 0 18 -4
21 -9 3 -5 23 -12 43 -16 21 -4 44 -11 51 -17 6 -6 12 -7 12 -2 0 12 -58 44
-79 44 -29 0 -54 24 -47 47 5 15 13 19 36 15 17 -2 33 -8 36 -13 7 -13 34 -11
34 1 0 6 -15 18 -32 26 l-33 15 31 -5 31 -5 0 49 c1 44 -2 50 -26 60 -15 6
-40 12 -56 13 -33 3 -47 27 -16 27 12 0 21 4 21 9 0 14 -51 18 -78 7 -30 -13
-51 6 -32 29 10 12 10 15 -1 15 -10 0 -10 3 -2 11 6 6 9 18 6 25 -3 8 -1 14 3
14 5 0 10 15 11 32 2 18 7 34 13 36 6 2 7 8 4 13 -3 6 0 16 6 24 10 12 10 15
-1 15 -10 1 -9 4 3 14 10 7 14 16 10 20 -12 13 -9 56 5 56 7 0 13 5 13 10 0 6
-5 10 -11 10 -8 0 -8 4 0 14 6 7 9 21 5 30 -4 10 -1 16 9 16 8 0 20 7 28 16
11 13 9 14 -14 9 -18 -5 -27 -3 -27 4 0 8 -11 10 -35 5 -29 -5 -35 -3 -35 11
0 11 5 15 15 11 17 -6 26 20 25 79 -2 68 11 128 23 116 6 -6 10 -26 9 -44z
m123 -1309 c1 -63 5 -119 8 -125 4 -6 1 -14 -5 -16 -9 -4 -9 -8 -3 -14 14 -11
17 -53 4 -53 -6 0 -7 -6 -2 -12 4 -7 6 -25 5 -39 -2 -14 4 -31 12 -39 22 -17
20 -29 -4 -23 -15 4 -20 0 -20 -16 0 -12 6 -21 15 -21 18 0 20 -20 3 -21 -7 0
-4 -4 7 -9 18 -7 19 -8 3 -15 -26 -10 -22 -35 5 -36 l22 -2 -22 -4 c-13 -2
-23 -9 -23 -14 0 -5 10 -9 23 -10 21 0 21 -1 -3 -11 -17 -7 -20 -12 -11 -15
11 -5 11 -7 0 -15 -12 -8 -12 -10 0 -15 11 -5 11 -7 0 -14 -12 -8 -12 -10 0
-18 7 -5 11 -13 7 -19 -3 -6 -2 -13 4 -17 16 -10 12 -25 -7 -26 -12 0 -8 -5
12 -14 19 -9 24 -14 13 -15 -26 0 -22 -18 5 -23 16 -3 13 -5 -10 -6 -38 -1
-45 -21 -9 -21 14 0 28 -5 32 -12 4 -7 3 -8 -4 -4 -13 8 -62 -3 -62 -14 0 -4
12 -10 28 -14 15 -3 36 -8 47 -11 20 -6 20 -2 19 190 -1 107 3 198 7 201 13 7
13 -15 10 -243 -1 -68 0 -127 3 -132 3 -5 7 -80 7 -166 2 -148 3 -156 21 -152
13 4 23 -3 33 -23 20 -39 19 -60 -4 -60 -25 0 -47 -56 -25 -64 19 -7 18 -32
-2 -40 -8 -3 -12 -10 -9 -16 7 -11 7 -158 0 -227 -2 -26 0 -43 7 -43 7 0 7 -4
1 -12 -12 -15 -11 -77 0 -95 5 -8 4 -13 -2 -13 -6 0 -11 -5 -11 -11 0 -6 9 -9
20 -6 17 4 20 0 21 -29 3 -85 1 -97 -11 -89 -5 3 -11 16 -11 28 -1 20 -2 21
-6 2 -3 -11 -13 -24 -22 -30 -13 -8 -10 -11 18 -15 29 -4 36 -10 43 -38 5 -18
5 -39 1 -46 -4 -8 -6 -52 -3 -97 5 -78 6 -84 29 -89 19 -4 26 -13 28 -37 4
-33 -13 -55 -23 -29 -7 17 -54 22 -54 6 0 -5 -7 -10 -16 -10 -9 0 -12 5 -8 13
6 9 5 9 -7 0 -11 -9 -18 -8 -33 3 -11 8 -30 14 -43 14 -23 0 -23 2 -25 113 -2
61 -3 284 -3 494 0 345 -2 384 -17 399 -16 16 -17 16 -18 -2 0 -10 -2 -221 -4
-469 -5 -562 -5 -575 -16 -550 -14 36 -18 396 -11 976 2 174 1 321 -3 327 -3
6 -2 13 3 16 6 4 10 188 10 464 0 251 0 461 1 465 0 4 7 4 17 -1 13 -8 17 -29
18 -124z m-186 -339 c-13 -26 7 -45 28 -27 8 6 16 8 19 6 3 -3 -9 -12 -25 -19
-37 -17 -41 -34 -6 -25 14 4 25 2 25 -3 0 -5 -9 -11 -19 -14 -13 -3 -19 -13
-18 -29 2 -23 5 -24 47 -20 l45 4 0 -60 c0 -47 -3 -58 -12 -50 -7 6 -13 30
-13 54 0 36 -3 44 -19 44 -10 0 -24 -6 -30 -14 -9 -11 -6 -12 16 -9 l28 5 -30
-22 c-26 -19 -27 -21 -7 -17 12 3 22 1 22 -4 0 -5 -10 -14 -22 -19 l-23 -9 23
0 c26 -1 30 -21 5 -21 -16 -1 -16 -2 1 -11 15 -9 16 -13 5 -20 -11 -6 -10 -9
4 -15 17 -6 17 -7 0 -20 -10 -7 -13 -14 -6 -14 6 0 19 7 28 16 10 11 20 13 26
7 11 -11 0 -75 -11 -68 -5 3 -6 13 -3 23 4 16 0 18 -26 14 -30 -4 -44 -22 -18
-22 7 0 6 -4 -3 -10 -9 -5 -36 -6 -60 -3 -37 5 -40 7 -22 14 21 8 22 13 23
171 1 90 0 169 -1 177 -1 8 4 18 12 22 22 15 29 10 17 -12z m31 -403 c0 -9 -4
-16 -9 -16 -6 0 -9 -9 -8 -20 1 -11 4 -20 7 -20 3 0 5 -65 5 -145 0 -79 -3
-137 -6 -128 -13 38 -18 -15 -18 -201 0 -108 -2 -200 -5 -205 -3 -4 -6 -44 -7
-89 -2 -76 -3 -82 -23 -83 -19 0 -19 -1 4 -11 21 -9 22 -12 8 -15 -27 -7 -21
-23 7 -23 15 0 25 5 24 13 -5 37 2 217 9 217 9 0 10 -326 0 -335 -4 -4 -4 -13
-1 -21 3 -8 0 -14 -6 -14 -9 0 -9 -5 0 -21 8 -15 8 -24 0 -32 -16 -16 -25 -1
-23 37 3 39 -13 86 -29 86 -6 0 -9 -6 -7 -12 3 -7 -1 -24 -8 -37 -8 -14 -10
-31 -5 -39 11 -19 3 -49 -15 -56 -9 -3 -14 2 -14 14 0 15 -7 20 -27 20 -21 0
-24 3 -15 12 7 7 20 13 29 13 8 0 19 10 24 21 7 20 3 22 -44 27 -29 4 -62 4
-74 1 -22 -6 -31 5 -16 20 4 4 8 15 8 24 0 16 60 36 77 26 5 -3 8 57 8 134 l0
139 28 -6 c25 -5 25 -6 4 -9 -34 -5 -16 -22 24 -22 l34 0 1 208 c1 114 2 282
2 374 l2 166 -28 5 c-15 2 -36 -3 -47 -10 -17 -12 -20 -12 -20 1 0 19 12 22
88 25 50 2 62 -1 62 -13z m3428 -1158 c3 -99 12 -118 56 -118 60 -1 154 -92
178 -173 13 -47 17 -147 6 -147 -5 0 -8 25 -8 55 0 43 -3 55 -15 55 -11 0 -14
7 -9 25 5 20 2 25 -12 25 -16 0 -17 2 -4 10 9 6 11 13 5 18 -6 4 -23 24 -38
45 -15 20 -33 37 -40 37 -7 -1 -2 -9 11 -20 12 -10 18 -21 13 -24 -5 -4 -11 0
-14 6 -4 13 -46 -28 -47 -46 0 -5 -8 -15 -17 -22 -16 -12 -11 -13 37 -14 36 0
50 -4 40 -9 -8 -5 -36 -8 -62 -7 -27 1 -48 -2 -48 -6 0 -4 26 -8 58 -10 l57
-3 -1 -35 0 -35 -60 -1 c-43 0 -58 -4 -56 -13 4 -18 -8 -51 -18 -51 -5 0 -10
14 -12 32 l-3 32 -57 -3 -58 -2 0 33 c0 51 11 78 30 78 14 0 18 13 23 86 4 59
11 90 21 98 11 8 15 36 17 101 2 50 5 93 7 98 11 22 18 -12 20 -95z m-3603
-525 c-43 -6 -56 -23 -17 -23 18 0 32 -4 32 -10 0 -5 -8 -10 -17 -10 -15 0
-13 -4 7 -20 23 -18 23 -20 5 -21 -16 0 -14 -3 10 -14 25 -11 27 -13 10 -18
-19 -5 -19 -5 3 -12 21 -7 31 -25 13 -25 -17 0 -19 -49 -2 -56 14 -5 13 -7 -4
-14 -11 -5 -14 -9 -7 -9 18 -1 15 -21 -4 -21 -10 0 -14 -6 -10 -15 4 -12 -3
-15 -29 -15 -24 0 -35 -5 -35 -15 0 -8 -7 -15 -15 -15 -20 0 -19 16 2 24 14 6
14 9 -6 22 -35 25 -51 11 -51 -45 0 -27 -4 -53 -10 -56 -5 -3 -10 4 -10 16 0
21 0 21 -19 -2 -12 -15 -16 -28 -10 -34 12 -12 12 -25 -1 -25 -5 0 -10 6 -10
14 0 8 -6 17 -12 19 -9 4 -10 8 -3 14 7 5 7 22 -1 52 -6 27 -13 40 -18 33 -5
-9 -13 -9 -27 -1 -17 9 -21 7 -26 -10 -3 -12 -10 -21 -15 -21 -6 0 -8 9 -5 20
3 11 2 20 -2 20 -11 0 -47 -28 -41 -32 3 -2 14 -8 25 -14 29 -16 20 -29 -20
-29 -24 0 -39 -7 -50 -22 -9 -13 -23 -23 -32 -23 -13 0 -13 3 -3 15 7 9 10 19
6 23 -8 7 -14 8 -78 11 -40 1 -49 16 -23 35 10 7 18 34 22 68 4 44 10 57 24
61 11 3 19 1 19 -5 0 -6 7 -7 15 -4 8 3 22 9 30 12 11 5 15 -1 15 -20 0 -14 4
-26 9 -26 5 0 7 8 4 18 -4 17 2 18 51 17 50 -2 56 0 56 17 0 11 9 22 20 25 14
4 20 14 20 34 0 15 5 31 12 35 8 5 9 0 5 -17 l-6 -24 19 25 c11 14 20 37 20
53 0 15 3 27 8 27 13 -1 42 -27 42 -39 0 -18 20 -12 21 7 0 10 3 12 6 5 5 -15
33 -18 33 -3 0 5 -8 14 -17 20 -17 11 -17 11 0 6 11 -3 17 0 17 9 0 11 11 15
43 14 33 -2 36 -3 12 -6z m-2443 -187 c-5 -38 -4 -39 21 -34 30 6 34 -3 12
-26 -21 -21 -19 -48 3 -44 11 2 17 12 16 28 -1 14 6 29 15 35 23 13 101 17
101 5 0 -5 11 -10 25 -10 14 0 25 5 25 10 0 19 21 10 32 -15 6 -14 20 -25 30
-25 11 0 16 5 13 10 -3 6 -1 10 5 10 7 0 10 -7 7 -15 -4 -8 -2 -17 3 -20 31
-19 -20 -85 -55 -71 -9 3 -15 0 -15 -9 0 -8 -9 -15 -21 -15 -11 0 -18 4 -14 9
3 5 1 12 -4 15 -5 3 -11 -5 -13 -17 -4 -20 0 -23 28 -25 18 -2 39 4 47 13 9 8
22 12 30 9 10 -3 18 2 21 14 5 14 13 18 26 15 14 -4 20 0 20 11 0 9 -6 13 -14
10 -11 -4 -13 5 -11 46 1 28 5 53 7 56 10 9 58 -16 58 -31 0 -8 5 -15 10 -15
6 0 10 5 10 10 0 6 7 10 15 10 17 0 55 35 55 50 0 5 7 7 15 4 10 -4 15 0 15
10 0 9 7 19 15 22 8 4 15 16 16 28 0 20 1 20 8 1 5 -12 4 -26 -3 -35 -9 -13
-9 -13 6 -2 9 8 27 10 42 6 37 -9 45 -27 10 -22 -31 4 -45 -17 -16 -26 11 -4
36 -7 56 -8 20 -1 36 -5 36 -10 0 -4 19 -7 43 -7 37 1 38 2 13 8 -16 3 -31 12
-32 19 -1 7 0 8 3 2 8 -16 26 -12 19 5 -3 9 0 15 8 15 8 0 16 5 18 12 2 6 10
8 17 4 9 -6 8 -11 -6 -21 -15 -11 -16 -14 -3 -19 8 -3 31 -4 50 -2 19 1 46 -3
60 -10 29 -14 56 -17 159 -15 41 1 71 4 68 8 -4 3 -50 5 -102 4 -98 -2 -120 5
-120 39 0 41 86 66 93 27 2 -9 -2 -18 -10 -18 -7 -1 1 -4 17 -8 32 -8 55 -4
55 9 0 5 -10 6 -22 4 -13 -2 -17 -1 -9 2 11 5 11 8 0 15 -7 4 -10 11 -6 15 4
4 15 0 25 -9 10 -10 22 -14 26 -10 4 5 6 -1 4 -12 -2 -15 3 -20 25 -21 17 -2
27 2 27 11 0 8 5 17 11 20 6 4 9 0 7 -10 -2 -13 4 -19 20 -20 17 -1 21 2 16
17 -3 10 -1 18 5 18 6 0 11 -7 11 -15 0 -9 9 -15 24 -15 14 0 28 -4 31 -10 3
-5 11 -10 17 -10 7 0 7 4 -1 13 -6 8 -7 18 -3 22 4 5 1 5 -5 1 -8 -4 -13 -2
-13 6 0 9 -3 9 -10 -2 -8 -13 -10 -12 -10 3 0 20 1 20 34 7 18 -6 26 -6 26 1
0 6 9 8 19 4 11 -3 22 -1 26 5 9 15 25 12 25 -5 0 -8 6 -15 13 -15 6 0 -10
-14 -38 -30 -35 -21 -58 -29 -78 -25 -35 6 -77 -10 -77 -31 0 -11 -5 -14 -16
-10 -26 10 -51 -2 -58 -27 -6 -26 -70 -72 -85 -62 -6 3 -11 -1 -11 -10 0 -12
-9 -15 -35 -13 -19 1 -40 -3 -47 -10 -9 -9 -3 -12 30 -12 49 0 56 -18 15 -37
-21 -10 -28 -10 -35 -1 -6 10 -10 10 -20 0 -13 -13 -57 -16 -74 -4 -6 4 -14
20 -18 36 -7 27 -9 28 -51 21 -25 -3 -45 -2 -45 2 0 16 -87 13 -100 -2 -15
-18 -90 -21 -90 -4 0 8 -5 8 -15 -1 -8 -7 -15 -19 -15 -26 0 -16 -36 -19 -45
-4 -4 6 -16 3 -32 -10 -14 -11 -31 -20 -38 -20 -7 0 -24 -9 -38 -20 -27 -22
-77 -27 -77 -8 0 6 7 20 17 30 15 17 15 18 -15 18 -17 0 -38 3 -47 6 -11 5
-18 0 -22 -15 -3 -11 -9 -21 -13 -21 -5 0 -11 -8 -14 -17 -3 -10 -3 -2 -1 17
5 31 2 37 -25 49 -23 10 -34 10 -44 1 -10 -7 -16 -8 -21 0 -3 5 -15 10 -26 10
-10 0 -19 7 -19 15 0 20 -10 19 -25 -2 -11 -14 -15 -15 -28 -4 -25 20 -9 43
27 38 17 -2 40 -1 51 4 16 6 14 8 -12 8 -30 1 -63 22 -63 42 0 5 5 9 12 9 6 0
4 8 -6 19 -11 12 -14 21 -7 26 7 3 12 47 12 103 2 88 2 92 9 42 4 -30 5 -73 2
-94z m-2830 42 c18 -15 29 -61 18 -78 -5 -9 -94 -15 -157 -11 -11 1 -16 77 -6
94 7 12 128 8 145 -5z m2368 -8 c-18 -11 -21 -80 -3 -80 6 0 15 5 18 10 4 7
13 6 26 -1 11 -5 39 -9 62 -7 38 3 42 6 48 33 5 29 5 29 10 -10 8 -60 3 -72
-32 -67 -16 2 -37 1 -46 -3 -17 -7 -16 -8 2 -15 11 -4 37 -6 57 -4 36 3 50 -7
28 -21 -5 -3 -8 -23 -7 -45 3 -33 0 -39 -19 -43 -13 -2 -28 1 -33 6 -21 21
-47 15 -49 -11 -3 -37 -11 -44 -45 -38 -22 4 -26 3 -13 -2 14 -6 16 -11 8 -16
-7 -4 -10 -12 -6 -17 3 -5 0 -16 -6 -24 -11 -14 -11 -37 5 -190 2 -16 4 -33 4
-37 1 -5 8 -8 16 -8 8 0 15 -4 15 -10 0 -5 -7 -10 -15 -10 -8 0 -15 -5 -15
-11 0 -6 7 -8 16 -5 9 3 22 6 29 6 7 0 12 8 11 17 0 10 7 19 17 21 24 5 22
-29 -3 -56 -22 -24 -27 -88 -7 -95 8 -3 6 -10 -8 -22 -16 -13 -17 -16 -3 -11
13 4 20 -4 28 -32 14 -52 13 -59 -12 -66 -54 -14 -61 -9 -55 40 4 43 3 45 -17
40 -38 -11 -108 -18 -271 -24 l-160 -7 -12 -27 c-11 -22 -21 -27 -72 -33 -34
-4 -62 -12 -64 -20 -8 -19 -57 -25 -105 -13 -40 10 -43 13 -40 41 2 24 9 33
28 37 26 6 37 32 39 91 1 34 3 36 34 36 17 -1 80 0 140 1 100 2 107 3 107 22
0 13 10 24 25 30 16 6 25 17 25 31 0 16 -4 19 -17 13 -21 -8 -140 -19 -341
-29 -143 -7 -144 -7 -138 -30 11 -45 -1 -55 -66 -55 l-59 0 3 70 3 70 70 1
c39 1 90 3 115 4 25 1 132 5 238 10 177 7 210 13 182 30 -8 5 -7 11 1 21 19
23 31 16 29 -18 -1 -18 -2 -53 -1 -77 l1 -44 112 8 c61 4 117 9 125 12 9 4 13
28 13 87 0 45 4 86 9 92 12 11 19 154 8 154 -5 0 -5 5 -2 10 4 6 1 18 -6 26
-10 13 -10 17 2 25 10 6 10 9 2 9 -10 0 -13 25 -13 90 0 63 4 90 12 90 9 0 9
3 0 12 -14 14 -16 42 -2 33 6 -3 10 -2 10 2 0 5 10 10 22 10 18 2 19 0 8 -7z
m4150 -15 c0 -10 13 -13 48 -12 26 0 61 0 77 -2 17 -1 69 -1 118 2 49 2 90 0
93 -5 3 -5 12 -7 20 -4 16 6 19 -10 3 -19 -6 -5 -4 -12 7 -20 10 -7 15 -19 11
-29 -9 -23 -30 -20 -22 4 5 15 2 20 -13 20 -11 0 -22 -9 -25 -20 -5 -20 -37
-29 -37 -10 0 6 5 10 11 10 5 0 7 5 3 11 -4 8 -9 7 -16 -2 -7 -11 -11 -11 -15
-1 -6 14 -52 16 -73 2 -12 -8 -10 -10 9 -10 21 0 23 -3 17 -34 -5 -25 -2 -39
10 -50 15 -16 18 -16 34 -1 10 9 23 15 31 13 7 -2 13 2 14 7 0 6 6 19 13 30
11 19 13 19 26 2 9 -12 16 -14 21 -8 7 13 25 15 25 4 -1 -11 -81 -59 -93 -55
-6 2 -13 -1 -16 -6 -3 -5 -21 -12 -38 -15 -26 -5 -33 -3 -33 9 0 13 -7 15 -37
10 -77 -12 -86 -15 -92 -25 -4 -6 -35 -13 -70 -17 -55 -5 -63 -3 -58 10 8 21
-12 20 -36 -1 -18 -17 -19 -17 -32 0 -13 18 -31 24 -20 7 3 -5 2 -10 -3 -10
-6 0 -8 -9 -5 -20 6 -24 -5 -26 -22 -3 -7 9 -22 17 -34 18 -16 1 -21 -4 -21
-22 0 -22 -3 -23 -65 -20 -68 4 -75 6 -79 29 -3 24 -17 38 -36 38 -13 0 -17
-5 -13 -20 6 -22 -4 -25 -41 -10 -16 6 -27 6 -31 0 -4 -6 -11 -10 -18 -10 -8
0 -8 3 1 12 7 7 12 16 12 21 0 5 -7 1 -16 -7 -21 -21 -32 -20 -37 4 -3 13 -4
10 -3 -7 1 -19 -4 -29 -16 -31 -11 -2 -18 3 -18 11 0 15 -49 29 -85 23 -16 -2
-21 -13 -25 -47 -4 -39 -8 -44 -32 -47 -47 -6 -31 -22 21 -22 68 0 111 -10
111 -26 0 -9 -12 -14 -35 -14 -24 0 -35 -5 -35 -15 0 -8 -7 -15 -15 -15 -8 0
-15 5 -15 10 0 6 -7 10 -15 10 -8 0 -16 -4 -16 -10 -1 -5 -2 -15 -3 -22 -2
-23 -26 -20 -26 4 0 25 -41 59 -48 39 -4 -13 -32 -15 -32 -2 0 5 14 19 30 31
25 18 28 25 19 36 -9 11 -9 14 1 14 10 0 10 3 0 15 -10 12 -9 15 5 15 14 0 15
3 5 15 -13 16 -14 16 45 31 l30 8 -30 3 c-66 7 -73 11 -77 48 -4 32 -2 35 27
41 18 3 40 4 51 2 14 -2 18 2 17 17 -2 11 0 32 3 46 l5 27 95 -3 c52 -1 97 1
100 6 9 15 34 10 34 -6 0 -8 4 -15 8 -15 5 0 9 -15 10 -32 0 -18 6 -34 11 -36
6 -2 11 -8 11 -14 0 -6 -7 -8 -15 -4 -17 6 -19 -2 -5 -24 5 -8 10 -10 10 -5 0
7 14 9 34 7 29 -3 35 -9 45 -43 11 -37 14 -39 51 -39 21 0 45 -3 54 -6 10 -4
16 -1 16 9 0 10 -8 13 -27 11 -57 -7 -80 4 -86 44 -8 43 -3 50 19 31 13 -11
18 -11 21 -1 6 17 32 15 40 -4 3 -8 11 -13 19 -10 7 3 18 -2 25 -10 10 -13 14
-13 29 1 9 8 20 12 24 8 4 -4 11 -1 17 7 8 13 11 13 22 -2 13 -16 59 -20 73
-6 3 3 22 2 42 -3 47 -11 102 -11 102 -1 0 17 -23 32 -35 22 -8 -7 -20 -4 -37
10 -14 10 -29 16 -32 12 -4 -4 -17 -8 -29 -9 -12 -1 -35 -5 -50 -9 l-28 -6 22
36 c18 31 26 36 45 32 14 -4 24 -2 24 4 0 5 -13 10 -29 10 -24 0 -28 3 -24 20
4 15 14 20 39 20 18 0 36 5 39 10 3 6 1 10 -5 10 -6 0 -8 5 -5 10 8 13 25 3
25 -15z m1850 -2 c0 -5 33 -7 72 -6 51 1 65 -1 48 -7 -14 -4 -59 -9 -100 -9
-67 -2 -73 -3 -56 -16 10 -8 24 -11 30 -7 6 3 57 7 114 8 79 1 107 -3 118 -14
12 -11 18 -12 27 -3 6 6 17 11 24 11 10 0 13 -31 13 -136 l0 -135 -37 3 -38 3
-3 68 c-2 37 1 82 5 100 6 19 5 41 -1 54 -9 18 -18 21 -66 20 -30 -1 -66 2
-80 6 -14 4 -19 4 -12 1 16 -8 16 -34 -1 -34 -7 0 -18 5 -24 11 -7 7 -15 6
-26 -5 -9 -9 -27 -16 -41 -16 -23 0 -26 3 -20 25 7 28 -7 33 -26 10 -7 -8 -23
-15 -35 -15 -19 0 -21 4 -17 26 3 16 -1 30 -9 36 -10 7 -2 8 26 4 27 -3 47 0
59 9 21 16 56 20 56 8z m-2195 -13 c3 -5 1 -10 -4 -10 -6 0 -11 -5 -11 -12 0
-7 6 -6 18 4 9 8 39 16 67 17 28 1 67 4 88 5 29 3 40 0 48 -15 5 -11 7 -24 4
-29 -3 -6 1 -10 9 -10 23 0 20 -17 -4 -25 -11 -3 -25 -15 -30 -26 -14 -25 -63
-27 -58 -1 3 11 12 16 26 15 26 -3 28 3 5 25 -12 12 -18 13 -21 4 -5 -15 -34
-16 -50 0 -9 9 -17 5 -35 -15 -22 -27 -57 -37 -57 -17 0 6 6 10 14 10 15 0 30
29 21 39 -3 3 -14 0 -25 -7 -14 -8 -27 -9 -50 -1 -35 13 -35 28 1 46 29 15 36
16 44 3z m1030 -9 c-4 -9 0 -11 12 -6 37 16 75 18 84 4 5 -8 9 -9 9 -4 0 11
513 15 525 4 3 -4 -6 -9 -20 -13 -45 -11 -26 -21 35 -18 39 3 60 0 60 -7 0 -6
-7 -11 -16 -11 -9 0 -23 -8 -30 -17 -12 -16 -15 -16 -23 -3 -7 11 -23 15 -51
13 -32 -1 -40 1 -37 12 6 14 -9 15 -30 2 -8 -5 -13 -4 -13 2 0 6 -4 11 -10 11
-21 0 -9 -20 15 -26 28 -7 26 -16 -5 -21 -11 -2 -20 2 -20 7 0 6 -4 10 -10 10
-5 0 -10 -7 -10 -15 0 -18 -12 -19 -28 -3 -10 10 -15 10 -22 -2 -7 -11 -12
-12 -21 -3 -6 6 -18 9 -26 6 -9 -4 -23 4 -34 18 -10 13 -19 18 -19 12 0 -17
-25 -16 -39 1 -13 15 -64 14 -129 -1 -32 -8 -32 -8 -12 -25 15 -13 20 -14 20
-5 0 9 15 14 45 15 36 2 43 -1 39 -13 -4 -8 -1 -15 5 -15 6 0 11 -7 11 -16 0
-14 -8 -15 -57 -10 -83 10 -121 24 -129 48 -3 12 -10 16 -15 11 -15 -15 -69
-3 -62 13 4 10 -3 14 -21 14 -26 0 -26 0 -7 -19 11 -11 30 -21 42 -23 17 -2
25 -12 30 -36 9 -43 13 -46 38 -30 17 11 25 10 42 -1 19 -11 21 -11 16 3 -8
21 9 21 21 1 6 -12 14 -14 33 -7 33 13 54 5 38 -14 -19 -24 -2 -27 20 -5 12
12 33 21 49 21 20 0 23 -3 12 -10 -8 -5 -11 -12 -7 -17 5 -4 16 3 26 16 l18
24 16 -23 c15 -21 19 -22 47 -10 17 7 34 9 38 5 4 -4 1 -10 -5 -12 -7 -3 -13
-9 -13 -14 0 -5 11 -4 25 3 19 8 28 8 41 -3 15 -12 16 -11 9 10 -4 13 -3 22 1
19 5 -2 22 -10 38 -18 26 -13 29 -12 42 4 11 15 16 17 28 7 8 -7 20 -10 26 -6
5 3 13 -1 16 -9 8 -20 24 -21 24 -1 0 20 19 19 41 -1 14 -12 22 -13 39 -4 12
6 29 8 38 4 9 -4 23 -6 30 -5 6 1 12 -3 12 -9 0 -5 -20 -10 -44 -10 -27 0 -48
-6 -56 -15 -10 -12 -15 -13 -21 -4 -6 10 -14 9 -37 0 -19 -8 -50 -10 -84 -7
-29 4 -142 8 -252 11 -109 2 -201 6 -204 9 -3 4 9 6 26 6 18 0 32 2 32 4 0 2
3 11 6 20 4 11 0 16 -12 16 -15 0 -16 -2 -5 -9 19 -12 -18 -24 -73 -23 -22 1
-45 -3 -51 -7 -5 -4 -46 -7 -90 -5 -87 2 -165 3 -174 2 -3 0 -19 0 -36 1 -28
2 -29 3 -7 11 12 5 28 7 36 4 8 -3 17 -1 21 5 4 7 -13 11 -51 11 -49 0 -55 -2
-44 -15 17 -21 1 -25 -92 -22 -59 1 -78 5 -78 16 0 10 11 12 45 8 37 -4 48 -1
59 14 7 11 24 19 37 19 161 -2 189 1 189 14 0 17 -41 18 -52 2 -5 -7 -11 -7
-20 2 -14 14 -48 16 -48 2 0 -5 -4 -10 -10 -10 -5 0 -10 9 -10 20 0 15 7 20
25 20 15 0 28 7 32 18 4 9 11 20 17 24 7 5 5 8 -5 8 -9 0 -20 7 -23 16 -6 15
-8 15 -26 -1 -24 -22 -49 -6 -43 28 4 22 7 22 149 22 118 0 143 -3 139 -14z
m1693 -53 c-3 -369 3 -608 15 -608 11 0 13 38 10 196 -1 114 1 203 7 213 11
19 12 7 15 -162 2 -92 6 -113 23 -135 11 -15 25 -26 31 -25 6 2 15 -12 20 -30
l9 -32 2 35 c1 19 2 160 3 312 1 176 6 279 12 280 6 2 11 -110 12 -317 2 -176
5 -326 8 -333 3 -8 16 -12 32 -10 24 3 29 9 33 40 4 29 8 36 19 28 12 -7 12
-11 2 -24 -17 -20 -7 -48 14 -40 10 4 15 0 15 -14 0 -11 -7 -23 -16 -26 -24
-9 -92 -7 -98 3 -3 5 -15 7 -25 4 -10 -3 -22 0 -25 5 -3 6 -15 8 -26 5 -16 -4
-20 -14 -20 -49 0 -34 -4 -44 -16 -44 -14 0 -16 8 -12 45 5 42 4 45 -17 45
-17 0 -24 -7 -29 -31 -10 -49 -7 -139 4 -139 6 0 10 34 10 81 0 51 4 78 10 74
13 -8 10 -168 -4 -177 -6 -4 -22 -8 -35 -8 -26 0 -25 -13 -5 184 4 41 3 48
-10 43 -12 -5 -16 0 -15 21 1 17 3 20 6 9 2 -9 8 -15 13 -12 10 6 14 352 4
390 -14 57 -19 16 -17 -135 l3 -160 -25 0 c-22 0 -25 3 -20 28 4 15 8 37 11
50 3 13 5 119 5 237 0 162 3 215 12 215 8 0 12 -28 13 -95 1 -52 5 -94 10 -93
5 2 9 54 9 116 0 80 3 112 12 112 8 0 12 -23 11 -72z m2778 43 c11 9 14 8 14
-4 0 -23 13 -28 46 -18 18 5 40 3 58 -4 17 -7 41 -9 55 -6 31 8 61 3 61 -10 0
-5 5 -9 12 -9 9 0 9 3 0 12 -17 17 -15 39 3 32 8 -4 15 -12 15 -19 0 -7 14
-15 30 -18 54 -11 35 -30 -25 -25 -40 3 -55 1 -55 -8 0 -7 -5 -16 -12 -20 -8
-5 -9 -2 -5 9 3 10 5 17 3 17 -3 0 -11 3 -19 6 -8 3 -22 -2 -31 -11 -9 -9 -16
-12 -16 -6 0 17 -21 13 -36 -6 -12 -17 -14 -17 -26 -1 -10 12 -34 17 -94 21
-45 2 -86 7 -93 11 -17 11 -34 -3 -21 -19 8 -10 4 -14 -20 -17 -25 -4 -30 -1
-30 15 0 16 3 17 15 7 12 -10 15 -10 15 4 0 19 -13 20 -41 5 -11 -5 -41 -9
-67 -7 l-47 3 28 19 c20 14 31 16 39 8 10 -10 41 0 58 18 3 3 17 7 33 8 18 1
27 -3 27 -13 0 -16 29 -10 43 9 6 8 10 7 14 -1 8 -22 33 -14 33 10 0 31 14 45
18 17 3 -17 6 -19 18 -9z m-7371 8 c6 -4 18 -5 29 -3 10 1 87 5 171 8 115 4
155 3 162 -7 12 -15 14 -95 2 -103 -5 -3 -9 -1 -9 4 0 5 -13 9 -30 10 -16 0
-30 -4 -30 -9 0 -5 -5 -9 -11 -9 -6 0 -9 9 -6 19 3 12 -1 22 -9 25 -19 7 -44
-3 -44 -18 0 -7 -25 -13 -70 -14 -44 -2 -70 1 -70 7 0 7 -16 8 -44 5 -47 -7
-61 -7 -117 -5 -35 1 -37 3 -48 45 -6 25 -11 46 -11 48 0 6 125 3 135 -3z
m6346 -29 c5 0 12 7 15 15 4 9 11 12 20 7 7 -4 42 -5 77 -2 71 6 97 3 97 -11
0 -5 -21 -9 -46 -9 -35 0 -45 -3 -41 -14 4 -11 -3 -13 -31 -10 -20 2 -54 1
-75 -3 -57 -9 -30 -26 45 -28 65 -2 138 -14 138 -22 0 -2 -7 -11 -15 -20 -12
-11 -19 -12 -29 -4 -8 7 -18 11 -22 9 -5 -1 -31 2 -59 6 -27 4 -66 9 -85 12
-54 8 -122 15 -155 16 -16 0 -35 7 -43 14 -7 8 -22 14 -33 14 -11 0 -18 4 -15
9 3 5 25 9 48 9 102 -1 118 2 118 18 0 11 8 14 28 12 16 -2 26 -8 24 -16 -1
-8 2 -11 8 -7 5 3 11 14 11 23 1 15 2 15 6 0 2 -10 9 -18 14 -18z m1484 10
c-21 -34 70 -54 109 -25 11 8 14 15 8 15 -7 0 -12 4 -12 9 0 5 18 4 41 -2 30
-7 47 -7 60 1 13 8 20 8 29 -3 6 -8 18 -11 26 -8 10 4 12 0 8 -11 -3 -9 -10
-16 -15 -16 -5 0 -9 -4 -9 -9 0 -4 71 -9 157 -9 177 -2 217 -7 209 -28 -5 -13
10 -19 42 -15 6 1 12 -5 12 -14 0 -20 -46 -10 -76 17 -12 11 -28 16 -38 12 -9
-3 -22 -2 -29 4 -6 5 -49 10 -94 11 -69 2 -83 -1 -83 -14 0 -8 -4 -15 -10 -15
-5 0 -10 7 -10 15 0 8 -4 15 -10 15 -5 0 -10 -7 -10 -15 0 -8 -4 -15 -10 -15
-5 0 -7 6 -4 14 6 15 -117 25 -291 22 -68 -1 -104 3 -113 11 -29 28 9 39 61
18 12 -5 17 -2 17 8 0 9 8 21 18 26 22 13 25 13 17 1z m868 -82 c15 -6 27 -17
27 -24 0 -8 5 -14 10 -14 6 0 10 -18 10 -39 0 -32 -6 -44 -31 -66 -40 -33 -82
-27 -120 16 -17 20 -31 27 -42 23 -13 -4 -17 -1 -17 15 0 14 6 21 19 21 12 0
20 9 23 25 3 14 1 25 -3 25 -5 0 -9 6 -9 14 0 18 89 20 133 4z m-8276 -31 c6
2 14 -1 18 -6 4 -7 -12 -11 -47 -12 -29 0 -64 -2 -78 -4 -66 -9 -100 -9 -104
0 -3 5 -11 2 -19 -7 -17 -21 -31 -24 -24 -5 3 9 -7 12 -41 11 -26 -1 -48 -7
-50 -13 -2 -6 1 -11 7 -11 6 0 11 -7 11 -16 0 -12 -7 -15 -23 -12 -21 4 -24 1
-21 -24 3 -20 -1 -28 -12 -28 -10 0 -14 6 -10 15 7 20 -23 34 -58 28 -18 -4
-31 -1 -36 8 -12 19 -3 29 26 29 28 0 114 36 114 48 0 9 73 7 88 -2 6 -3 13
-2 16 2 6 10 36 9 53 -1 6 -4 15 -3 18 3 4 6 25 8 55 4 28 -4 55 -2 66 4 14 8
22 8 29 -2 6 -7 15 -11 22 -9z m7053 5 c0 -5 11 -14 25 -20 15 -7 25 -8 25 -2
0 6 20 10 44 10 25 0 48 5 51 10 7 12 45 14 45 3 0 -16 -63 -43 -98 -43 -25 0
-33 -3 -25 -11 13 -13 4 -61 -10 -52 -6 4 -7 -7 -3 -31 5 -28 4 -36 -8 -36 -8
0 -17 6 -19 13 -3 6 -6 3 -7 -8 -1 -18 -1 -19 -11 -2 -5 9 -18 17 -28 17 -21
0 -33 39 -19 64 12 21 44 20 58 -1 9 -15 10 -13 5 11 -4 17 -17 40 -31 53 -28
26 -30 33 -9 33 8 0 15 -4 15 -8z m1510 -8 c10 -11 9 -14 -4 -14 -9 0 -16 -4
-16 -10 0 -5 5 -10 10 -10 6 0 10 -7 10 -15 0 -8 -4 -15 -10 -15 -5 0 -10 -7
-10 -15 0 -23 -36 -36 -88 -33 -40 3 -47 6 -50 25 -2 15 -11 23 -29 25 -15 2
-29 9 -31 17 -4 11 4 13 37 7 23 -3 41 -2 41 3 0 11 -25 21 -51 21 -10 0 -19
6 -19 14 0 20 193 21 210 0z m322 -54 c-3 -35 -8 -50 -18 -50 -10 0 -14 13
-15 43 l-2 42 -6 -40 c-8 -50 -32 -57 -70 -21 -28 27 -41 26 -41 -6 0 -10 -7
-18 -15 -18 -19 0 -30 62 -16 89 14 26 22 26 47 4 28 -26 56 -26 48 -1 -5 17
-3 19 14 14 11 -4 23 -2 27 3 4 7 13 7 28 0 19 -9 22 -16 19 -59z m718 15 c0
-25 5 -45 10 -45 6 0 10 19 10 43 l0 42 63 0 c34 0 67 -3 73 -7 5 -4 28 -3 50
1 21 4 55 8 74 7 33 -1 35 -3 38 -38 4 -47 22 -50 22 -4 0 35 19 53 38 34 8
-8 15 -8 26 1 10 8 16 9 21 1 3 -5 -1 -10 -9 -10 -20 0 -20 -9 1 -32 23 -26
33 -22 33 11 0 16 6 31 14 34 19 8 28 -3 15 -19 -13 -15 -8 -55 6 -55 6 0 11
16 13 36 3 32 6 35 35 36 18 0 49 1 70 3 29 2 37 -1 37 -14 0 -13 -7 -16 -30
-12 -18 3 -30 0 -30 -7 0 -6 11 -11 25 -11 15 0 25 -6 25 -14 0 -10 7 -12 23
-9 20 6 20 4 -6 -20 -31 -30 -91 -36 -143 -17 -18 7 -29 7 -34 1 -7 -12 -50
-3 -50 10 0 12 -51 61 -57 55 -3 -3 0 -12 6 -20 9 -11 10 -20 1 -35 -9 -17
-15 -19 -30 -11 -14 8 -26 8 -40 0 -19 -10 -68 -12 -102 -3 -13 3 -18 14 -18
38 0 27 -5 34 -25 39 -14 4 -33 2 -43 -3 -14 -9 -11 -10 16 -11 29 0 48 -20
20 -20 -9 -1 -8 -5 3 -13 29 -22 10 -37 -44 -36 -29 0 -61 4 -72 8 -11 5 -24
5 -30 1 -5 -5 -23 -2 -40 5 l-30 13 25 10 c25 11 25 11 -7 11 -26 1 -33 -3
-33 -18 0 -14 -7 -18 -33 -18 -18 1 -37 -2 -43 -5 -13 -8 -116 -4 -130 5 -6 3
-10 26 -10 49 l1 43 73 3 c71 3 72 2 60 -18 -14 -21 -52 -27 -63 -10 -5 8 -11
7 -21 -1 -20 -17 -18 -22 16 -38 24 -10 34 -10 45 -1 12 10 15 10 15 0 0 -10
3 -10 15 0 8 7 15 25 15 41 0 32 25 41 32 11 7 -26 74 -18 81 9 10 36 27 19
27 -26z m-6236 -12 c6 -14 9 -15 15 -4 10 15 91 6 91 -10 0 -6 -4 -8 -9 -5 -5
4 -7 -4 -4 -15 6 -20 7 -20 18 -5 7 9 18 16 24 16 7 0 9 5 6 10 -7 12 -3 12
19 4 9 -3 13 -10 10 -16 -3 -5 2 -15 12 -23 11 -7 16 -17 12 -21 -4 -4 -14 -1
-22 6 -13 10 -19 9 -31 -4 -21 -21 -21 -21 137 -46 121 -19 158 -19 158 1 0 5
5 9 11 9 6 0 9 -7 5 -15 -7 -19 23 -35 68 -35 20 0 36 -5 36 -10 0 -18 -28
-23 -62 -11 -24 9 -35 8 -47 -2 -19 -16 -51 -11 -51 9 0 10 -12 14 -39 14 -89
0 -361 56 -361 74 0 7 -28 18 -65 26 -36 7 -65 17 -65 22 0 4 28 8 63 8 39 0
57 4 48 9 -7 5 -10 14 -7 20 10 16 23 14 30 -6z m4346 -9 c0 -19 4 -25 14 -21
8 3 17 1 19 -6 2 -7 8 -9 12 -4 5 4 0 14 -11 22 -16 12 -17 16 -5 24 19 12 64
7 69 -8 2 -6 -6 -11 -17 -11 -12 0 -21 -5 -21 -11 0 -6 6 -9 13 -6 6 2 19 -1
27 -9 13 -11 19 -10 40 6 l25 20 -27 0 c-18 0 -28 5 -28 15 0 23 38 18 51 -6
6 -12 9 -30 6 -40 -3 -10 -1 -17 3 -14 16 10 37 -6 35 -28 -1 -12 3 -25 9 -29
13 -8 36 10 36 28 0 10 13 14 39 14 22 0 41 5 44 13 3 8 14 3 34 -15 19 -18
40 -28 60 -28 29 0 30 -2 28 -32 -2 -24 -7 -32 -19 -30 -25 4 -19 -7 9 -18 27
-10 34 -30 10 -30 -17 0 -159 38 -190 51 -11 5 -56 17 -100 28 -172 43 -211
54 -227 68 -9 8 -25 14 -35 13 -42 -4 -81 21 -50 33 6 3 -1 6 -16 6 -16 1 -26
5 -23 10 6 10 56 2 56 -8 0 -4 14 -8 30 -8 17 0 30 4 30 9 0 5 10 4 21 -3 15
-8 19 -8 15 0 -9 14 1 31 20 31 8 0 14 -10 14 -26z m-9592 -58 c3 -4 6 -36 7
-71 0 -59 -4 -70 -27 -66 -18 3 -6 -20 15 -29 25 -10 16 -12 -49 -15 l-42 -1
-6 64 c-4 35 -4 78 0 96 6 33 7 34 51 31 24 -2 47 -6 51 -9z m-2179 -8 c6 10
14 10 34 3 15 -6 27 -7 27 -2 0 5 25 9 55 9 61 -1 71 -14 25 -31 -16 -6 -30
-15 -30 -19 0 -4 -9 -8 -20 -8 -11 0 -20 -4 -20 -10 0 -5 7 -7 16 -3 12 4 15
1 12 -13 -2 -11 -20 -25 -44 -34 -22 -8 -53 -23 -68 -33 -19 -13 -31 -16 -38
-9 -13 13 -2 32 18 32 8 0 13 4 9 10 -3 5 -12 7 -20 4 -11 -5 -14 4 -12 35 1
23 5 41 10 41 5 0 4 6 -2 13 -15 19 -3 28 20 14 15 -9 21 -9 28 1z m1901 2 c0
-5 6 -9 13 -7 9 1 13 -22 15 -85 l3 -86 -56 -4 -55 -3 0 91 c0 50 3 94 7 97
10 11 73 8 73 -3z m5745 -173 c0 -7 17 -13 38 -15 37 -3 50 -23 25 -38 -7 -5
-5 -11 7 -21 11 -7 17 -14 14 -14 -7 -3 -86 -9 -194 -15 -55 -3 -119 -12 -142
-19 -36 -13 -47 -12 -77 0 -40 17 -50 41 -13 31 16 -4 26 1 35 14 14 24 47 28
38 5 -4 -10 1 -15 14 -15 11 0 20 6 21 13 0 10 2 10 6 0 7 -20 30 -15 36 7 3
11 13 20 22 20 12 0 16 -6 12 -20 -4 -15 0 -20 14 -20 10 0 19 5 19 11 0 6 9
9 19 6 13 -3 21 1 24 14 7 26 37 25 37 -1 0 -20 24 -28 34 -11 3 5 16 7 29 3
19 -5 20 -3 9 10 -7 9 -22 13 -36 11 -30 -6 -45 16 -23 32 10 7 17 18 17 25 0
7 3 10 8 6 4 -4 7 -13 7 -19z m-3135 -63 c0 -8 8 -15 18 -15 16 -1 16 -2 0 -6
-10 -2 -18 -11 -18 -19 0 -8 4 -13 9 -9 5 3 12 1 16 -5 3 -6 -2 -13 -11 -17
-17 -6 -17 -7 0 -13 10 -3 17 -10 16 -14 -1 -5 4 -13 12 -17 11 -7 10 -11 -2
-19 -13 -8 -12 -10 3 -10 19 0 24 -20 5 -20 -8 -1 -6 -6 4 -14 10 -7 15 -16
11 -19 -11 -12 -53 -7 -53 6 0 8 -4 7 -10 -3 -16 -25 -12 -30 25 -30 39 0 47
-15 13 -24 -33 -8 -50 -40 -38 -71 10 -27 1 -31 -62 -26 -30 2 -47 -17 -27
-30 8 -5 27 -9 42 -9 16 0 26 -4 23 -9 -3 -4 -17 -6 -31 -3 -15 2 -25 0 -25
-7 0 -6 7 -11 15 -11 18 0 20 -26 3 -33 -7 -3 -2 -6 12 -7 25 -2 25 -2 -4 -15
l-30 -13 31 -6 c28 -6 30 -10 29 -52 -1 -32 -5 -43 -14 -39 -8 3 -23 5 -33 5
-11 0 -17 4 -14 10 3 5 -6 12 -21 16 -20 5 -31 2 -40 -11 -13 -17 -15 -17 -32
-2 -12 11 -37 17 -73 18 l-54 0 32 16 c20 10 33 25 36 42 3 14 5 27 4 28 -7 6
-56 -11 -51 -18 3 -5 0 -9 -5 -9 -6 0 -11 5 -11 10 0 17 -28 11 -39 -7 -6 -10
-11 -12 -11 -5 0 14 -170 18 -170 3 0 -5 8 -8 18 -7 12 1 16 -5 15 -21 -2 -19
2 -23 24 -23 24 0 25 -2 13 -13 -8 -8 -42 -22 -75 -32 -33 -10 -64 -20 -70
-24 -17 -10 -135 -11 -135 -1 0 5 10 10 22 12 12 2 23 9 26 16 3 9 -3 11 -21
7 -25 -7 -26 -5 -24 41 1 28 7 49 15 52 6 2 12 -3 12 -12 0 -9 -6 -16 -12 -16
-7 0 -5 -5 5 -11 26 -15 51 -4 38 18 -6 11 -6 24 0 35 8 16 6 17 -23 12 -18
-3 -39 -8 -46 -10 -9 -3 -11 2 -7 15 3 12 0 21 -10 25 -8 3 -15 2 -15 -3 0
-21 -41 -18 -67 5 -15 13 -23 24 -16 24 6 0 9 9 6 20 -5 19 12 29 19 11 2 -5
12 -3 23 5 19 15 19 16 2 29 -15 10 -17 21 -12 44 5 25 3 31 -10 31 -9 0 -14
4 -11 9 7 11 123 -14 143 -30 9 -8 17 -7 28 5 20 20 29 20 46 0 10 -12 29 -14
103 -10 162 8 246 23 246 42 0 8 7 14 15 14 9 0 15 -9 15 -21 0 -16 4 -19 18
-14 9 4 31 8 47 7 19 0 23 2 10 5 -30 7 -41 21 -28 34 8 8 17 8 30 1 16 -9 23
-7 37 10 15 17 16 22 5 30 -11 7 -9 8 5 6 15 -2 21 5 27 30 4 18 2 35 -3 38
-6 4 -6 10 1 17 6 6 11 22 12 37 0 14 3 18 6 10 2 -8 7 -22 10 -30 4 -8 5 -20
4 -26 -1 -7 6 -14 14 -18 10 -4 14 -2 9 5 -4 6 0 15 7 20 10 6 11 9 1 9 -8 0
-10 8 -7 23 3 12 7 33 9 47 3 14 5 26 5 28 3 10 21 -12 21 -24z m1054 -50 c5
-14 17 -15 75 -10 44 4 72 3 76 -4 4 -6 -6 -10 -25 -10 -27 0 -30 -3 -25 -20
5 -14 2 -20 -9 -20 -9 0 -16 -5 -16 -11 0 -7 -15 -10 -40 -7 -22 2 -40 0 -40
-4 0 -5 -18 -8 -39 -8 -22 0 -41 -5 -43 -12 -3 -9 -11 -9 -35 1 -24 10 -36 10
-53 1 -12 -6 -33 -11 -48 -10 -48 4 -57 1 -45 -11 9 -9 45 -9 145 0 174 15
181 14 174 -4 -3 -9 0 -15 9 -15 9 0 12 6 9 15 -5 12 4 14 52 11 34 -3 59 -9
58 -15 -1 -6 -2 -15 -2 -19 -1 -5 -46 -12 -99 -16 -54 -3 -111 -8 -128 -11
-16 -2 -67 -7 -112 -11 -71 -6 -83 -4 -89 10 -3 9 -17 16 -29 16 -28 0 -43 19
-24 31 17 10 4 23 -24 24 -18 0 -22 6 -23 35 -2 27 2 36 15 36 9 1 24 4 34 9
21 9 23 -8 2 -28 -8 -8 -11 -17 -8 -20 6 -6 52 20 66 38 5 5 5 0 2 -12 -5 -17
-2 -23 9 -23 9 0 16 -8 17 -17 1 -12 4 -9 8 7 4 14 14 25 23 25 9 0 20 4 25 8
4 5 4 7 -2 6 -5 -2 -20 1 -33 5 -17 6 -20 11 -13 20 15 17 71 8 64 -10 -9 -25
27 -15 38 10 9 20 16 23 51 19 28 -4 38 -2 34 6 -4 6 -3 11 2 11 6 0 13 -7 16
-16z m404 -1 c-2 -13 3 -17 20 -16 23 3 31 -20 12 -32 -5 -3 -10 -13 -10 -22
0 -24 110 -8 128 19 11 15 17 17 26 8 8 -9 5 -16 -11 -27 -13 -9 -23 -18 -23
-22 0 -11 303 -19 399 -9 56 5 142 -11 148 -27 2 -6 -94 -10 -250 -9 -334 1
-337 1 -337 18 0 10 -18 12 -85 9 -59 -4 -85 -2 -85 6 0 6 14 14 30 18 34 6
40 29 10 38 -23 7 -27 25 -5 25 18 0 20 20 3 21 -10 0 13 14 30 18 2 1 2 -7 0
-16z m1331 -203 c12 0 30 5 41 12 10 7 23 9 27 5 4 -5 1 -12 -6 -17 -12 -7
-11 -11 2 -25 10 -9 17 -12 17 -7 0 5 9 12 21 15 13 4 18 10 14 18 -6 9 -1 10
21 4 16 -5 63 -10 104 -11 41 -1 81 -3 88 -3 6 -1 12 -8 12 -17 0 -10 -4 -12
-12 -7 -7 4 -42 9 -78 9 -36 1 -69 4 -75 5 -11 4 -15 -3 -15 -30 0 -17 7 -19
88 -16 122 3 119 3 125 25 8 30 30 25 25 -5 -3 -14 -1 -25 4 -25 12 0 1 -52
-13 -61 -5 -3 -7 -14 -3 -24 5 -12 1 -23 -12 -33 -13 -10 -15 -16 -6 -19 8 -3
4 -11 -13 -24 -19 -16 -29 -18 -45 -9 -27 15 -17 29 16 22 16 -3 25 -1 21 5
-6 9 -178 19 -252 14 -22 -2 -66 -4 -97 -4 -32 -1 -58 -5 -58 -9 0 -5 -11 -8
-24 -8 -48 0 -86 -12 -86 -29 -1 -13 -3 -13 -15 3 -9 12 -15 15 -15 7 0 -8 -6
-11 -15 -7 -8 3 -15 1 -15 -4 0 -5 -13 -7 -30 -3 -23 4 -30 2 -30 -10 0 -9 -8
-18 -17 -21 -10 -2 0 -2 22 1 22 2 48 7 58 10 15 4 18 0 15 -19 -3 -20 -8 -23
-40 -20 -47 4 -50 -13 -5 -23 28 -7 29 -9 10 -12 -13 -3 -23 -7 -23 -11 0 -8
79 -42 98 -42 6 0 12 -4 12 -10 0 -15 -56 -12 -69 4 -6 7 -22 14 -36 14 -28 0
-52 -22 -35 -33 13 -8 13 -97 -1 -155 -6 -25 -11 -59 -10 -76 0 -33 -19 -57
-56 -68 -14 -5 -20 -12 -16 -22 4 -11 -5 -14 -46 -14 -38 0 -53 4 -58 16 -4
12 -7 13 -14 3 -12 -20 -22 -4 -25 38 -2 21 -3 38 -4 38 -3 0 -10 81 -10 113
0 19 -3 39 -7 45 -8 13 -11 24 -19 82 -8 61 -14 74 -24 50 -5 -11 -9 -35 -9
-53 -1 -49 -25 -35 -32 19 -6 48 -16 37 -21 -21 -4 -48 -22 -40 -26 12 -3 62
-11 90 -22 83 -6 -3 -10 -21 -10 -38 0 -18 -3 -43 -7 -57 l-7 -25 -6 24 c-9
38 -31 39 -27 1 2 -18 0 -53 -5 -79 -6 -25 -9 -63 -9 -83 1 -22 -4 -38 -10
-38 -6 0 -9 -7 -5 -15 3 -9 0 -15 -9 -15 -7 0 -17 10 -21 23 -7 21 -54 73 -54
59 0 -4 -5 0 -10 8 -7 11 -12 12 -20 4 -14 -14 -2 -67 14 -61 6 3 12 -8 13
-24 2 -27 -10 -39 -20 -21 -2 4 -3 2 -1 -5 1 -6 -7 -19 -18 -30 -21 -18 -21
-18 -14 10 5 22 3 27 -11 27 -12 0 -14 3 -7 8 16 10 30 122 15 122 -6 0 -11
-9 -11 -19 0 -11 -4 -23 -10 -26 -6 -4 -8 5 -4 22 9 48 -52 95 -156 123 -25 7
-51 14 -57 16 -26 7 -12 24 20 25 17 0 26 3 20 6 -7 2 -13 14 -13 26 -1 22 -1
22 -16 2 -13 -17 -16 -18 -24 -5 -7 10 -5 18 5 26 22 16 18 24 -10 22 -24 -2
-37 -18 -15 -18 7 0 7 -7 0 -20 -8 -14 -17 -19 -30 -15 -18 6 -19 2 -13 -44 5
-46 4 -51 -14 -51 -11 0 -25 6 -30 13 -13 15 -8 47 7 57 8 5 6 11 -5 20 -8 7
-15 23 -15 37 l0 24 -22 -20 c-23 -22 -48 -13 -48 17 0 12 -11 14 -70 8 -60
-5 -72 -4 -77 10 -11 28 16 35 175 47 44 4 52 2 50 -12 -2 -9 -8 -17 -13 -17
-29 -4 -54 -17 -49 -26 3 -5 13 -7 21 -3 27 10 53 -5 53 -31 0 -30 10 -31 34
-3 15 18 15 23 5 30 -8 5 -20 9 -27 9 -9 0 -7 9 8 30 16 22 29 30 48 29 15 -1
35 2 45 6 12 5 17 3 17 -9 0 -9 5 -16 10 -16 6 0 10 7 10 15 0 20 17 19 28 -2
9 -16 11 -16 27 0 20 20 32 22 38 5 3 -9 9 -7 19 6 13 17 15 17 31 2 16 -16
16 -15 10 15 -6 31 -5 32 25 27 18 -2 32 -2 32 2 0 4 21 7 46 7 42 0 48 -3 57
-28 9 -23 13 -25 29 -16 14 9 20 8 32 -8 14 -19 15 -19 21 -2 8 19 35 24 35 5
0 -6 6 -3 14 8 12 16 18 17 34 7 11 -6 23 -9 26 -5 4 3 27 5 51 3 59 -3 58 15
-2 24 -30 4 -42 10 -33 15 11 7 10 11 -3 25 -10 9 -17 18 -17 19 0 2 23 4 51
5 29 0 58 6 65 12 11 9 19 8 34 -6 19 -17 21 -17 40 0 18 16 20 16 26 1 4 -10
18 -16 36 -16 17 0 27 4 23 10 -3 6 2 10 12 10 10 1 27 15 38 33 17 27 28 33
70 38 l50 6 -47 1 c-27 1 -48 7 -51 15 -3 7 -9 0 -15 -15 -10 -23 -15 -26 -34
-19 -13 4 -23 13 -22 20 4 45 3 44 20 30 11 -9 17 -10 23 -1 4 7 12 8 21 2 22
-14 30 -12 24 8 -5 16 -5 16 9 0 9 -12 27 -18 53 -17 21 1 31 3 22 6 -37 9
-16 21 36 21 29 0 62 4 72 10 12 6 25 7 36 1 9 -5 26 -9 37 -9z m-4269 -4 c0
-7 9 -16 19 -19 14 -3 21 2 25 17 5 20 6 20 23 4 13 -14 15 -20 5 -30 -22 -22
-19 -24 53 -31 24 -2 37 -17 15 -17 -5 0 -11 -17 -12 -37 l-1 -38 -4 36 c-3
27 -10 38 -25 42 -30 8 -38 1 -38 -34 0 -16 -5 -29 -11 -29 -6 0 -22 -9 -36
-20 -39 -31 -53 -26 -53 18 0 21 5 43 12 50 9 9 9 12 0 12 -13 0 -15 31 -6 68
7 24 34 31 34 8z m3040 -41 c0 -8 7 -15 15 -15 8 0 15 7 15 15 0 8 5 15 10 15
6 0 10 -7 10 -15 0 -8 7 -15 15 -15 8 0 15 7 15 15 0 8 5 15 10 15 6 0 10 -7
10 -15 0 -8 4 -15 9 -15 5 0 11 7 15 15 3 8 10 15 16 15 5 0 10 -7 10 -15 0
-8 5 -15 10 -15 6 0 13 7 16 15 4 8 10 15 15 15 5 0 9 -7 9 -15 0 -8 7 -15 15
-15 8 0 15 7 15 15 0 8 5 15 10 15 6 0 10 -7 10 -15 0 -8 7 -15 15 -15 8 0 15
7 15 17 0 15 1 15 18 0 10 -10 22 -17 25 -17 4 0 7 7 7 17 0 14 2 15 18 1 9
-8 25 -18 35 -21 10 -4 15 -11 12 -17 -8 -13 -55 -13 -55 1 0 5 -5 7 -11 3 -7
-4 -28 -9 -48 -11 -20 -2 -49 -6 -66 -9 -77 -14 -158 -16 -166 -2 -8 13 -12
14 -49 17 -14 1 -20 8 -20 26 0 14 5 25 10 25 6 0 10 -7 10 -15z m-861 -165
c2 -79 0 -90 -15 -90 -10 0 -14 -3 -11 -7 4 -3 -1 -12 -11 -19 -16 -12 -15
-13 6 -14 12 0 22 4 22 8 0 5 19 8 43 8 35 -1 42 -4 42 -21 0 -11 7 -23 15
-27 8 -4 -7 -7 -35 -5 -39 1 -50 -1 -50 -13 0 -21 64 -25 107 -7 29 12 35 12
47 0 7 -8 10 -17 6 -21 -23 -24 -433 -8 -458 17 -10 10 4 12 68 6 55 -4 75 -3
65 4 -8 5 -11 14 -6 18 4 4 13 1 19 -8 7 -9 35 -19 65 -23 49 -6 52 -5 52 15
0 15 -5 19 -15 15 -8 -3 -15 -2 -15 3 0 5 -10 12 -22 16 l-23 7 25 8 25 7 -25
11 c-14 6 -19 11 -12 11 17 1 15 21 -3 21 -8 0 -15 7 -15 15 0 8 5 15 10 15 6
0 10 -4 10 -10 0 -5 5 -10 10 -10 18 0 11 18 -10 25 -27 9 -25 25 3 22 16 -1
21 3 19 16 -2 9 2 17 8 17 6 0 8 5 5 10 -4 6 -12 10 -18 9 -24 -3 -37 1 -37
11 0 6 17 8 43 5 23 -3 36 -2 30 1 -19 9 -16 21 8 27 13 4 18 10 13 18 -4 7
-3 10 3 6 6 -4 11 -47 12 -97z m1166 90 c12 10 18 10 32 -1 13 -11 17 -11 20
-1 6 15 43 16 43 1 0 -8 4 -8 13 -2 6 6 43 11 81 12 72 1 86 -6 86 -42 0 -16
-12 -18 -137 -17 -76 1 -163 -3 -193 -8 -30 -6 -61 -6 -69 -2 -8 4 -37 1 -64
-7 -70 -21 -101 -15 -105 20 -3 25 -1 28 16 23 11 -4 23 -2 27 4 4 7 31 10 64
9 32 -1 63 1 69 5 7 4 20 5 30 2 9 -3 24 -1 32 4 9 5 19 5 27 -2 9 -7 17 -7
28 2z m4820 -17 c2 -7 17 -13 33 -13 31 0 56 -16 65 -42 10 -29 -18 -41 -78
-34 -51 6 -55 5 -55 -14 0 -11 7 -20 15 -20 8 0 15 -9 15 -20 0 -13 -7 -20
-20 -20 -22 0 -24 8 -20 83 l2 47 -66 0 c-55 0 -64 3 -60 15 4 9 13 13 24 10
9 -3 22 1 29 8 14 18 109 17 116 0z m-7680 -23 c24 0 47 4 50 10 7 12 68 7 72
-6 4 -12 -53 -37 -69 -31 -7 2 -27 -1 -43 -8 -17 -7 -45 -10 -62 -8 -17 3 -34
0 -37 -6 -4 -6 -26 -11 -50 -11 -23 0 -47 -5 -52 -10 -8 -8 -19 -8 -38 0 -20
7 -33 7 -49 -2 -20 -11 -102 -20 -169 -18 -27 0 -39 -15 -18 -22 6 -2 12 -33
14 -70 l4 -66 -33 -6 -33 -6 1 -90 c0 -81 2 -90 19 -90 10 0 18 -5 18 -11 0
-6 -8 -9 -18 -7 -15 4 -18 -1 -18 -28 0 -28 4 -34 21 -34 l20 0 -21 -18 c-27
-22 -29 -89 -1 -84 26 4 23 -44 -4 -51 -22 -6 -24 -42 -2 -42 21 0 25 -13 6
-19 -17 -5 -18 -21 -18 -200 0 -107 -3 -205 -7 -218 -5 -20 -13 -9 -9 14 0 4
-7 4 -16 1 -13 -5 -15 -3 -8 13 4 10 8 50 9 87 1 57 -2 71 -17 79 -17 8 -17
11 -4 26 18 21 31 62 20 62 -4 0 -8 25 -8 55 0 30 2 55 6 55 3 0 5 15 5 34 0
25 -6 38 -25 50 -21 14 -22 16 -5 11 18 -5 21 -1 22 35 1 29 -2 40 -12 40 -8
0 -17 4 -20 8 -3 5 4 8 14 8 11 -1 19 2 20 7 2 49 -2 66 -17 70 -15 4 -14 5 3
6 17 1 20 7 20 36 -1 28 -6 37 -23 41 -28 7 -30 24 -4 24 20 0 34 49 20 72 -4
7 -3 18 2 25 7 8 6 19 -2 35 -7 13 -12 26 -11 31 1 4 -5 7 -13 7 -8 0 -15 6
-15 13 0 10 13 13 53 9 l52 -4 2 46 c2 41 -1 47 -23 52 -13 3 -24 11 -24 16 0
6 11 8 24 4 19 -5 25 -1 31 17 4 12 6 26 6 31 -1 5 9 1 24 -8 25 -16 25 -16
25 10 0 19 4 25 15 20 8 -3 15 -2 15 2 0 4 8 8 18 9 9 0 47 3 84 6 38 3 70 2
73 -4 6 -8 -24 -13 -77 -12 -10 0 -18 -6 -18 -12 0 -20 67 -11 99 13 33 24 56
29 46 10 -4 -7 0 -5 9 6 11 13 23 17 44 13 15 -3 34 -2 42 3 11 7 16 5 18 -5
2 -11 17 -15 47 -15z m-991 -47 c4 -5 12 -9 17 -9 5 -1 13 -2 18 -3 5 0 12
-13 15 -27 l7 -26 24 26 c28 30 31 31 52 10 10 -10 30 -14 57 -13 38 3 41 1
38 -21 -4 -39 -20 -47 -31 -17 -6 16 -18 27 -28 26 -24 -1 -71 -17 -56 -18 18
-1 4 -29 -18 -36 -11 -4 -26 -2 -33 4 -10 8 -17 7 -26 -4 -12 -14 -15 -14 -30
0 -15 14 -18 14 -31 -1 -12 -14 -14 -14 -27 3 -12 17 -14 17 -26 1 -8 -10 -23
-16 -39 -14 -29 3 -50 16 -26 16 9 0 24 17 34 38 14 28 19 33 23 19 2 -12 9
-16 19 -13 8 3 23 6 34 6 17 0 18 3 7 20 -7 11 -17 19 -23 19 -25 -3 -45 2
-45 11 0 12 83 14 94 3z m10067 -43 c5 0 9 -7 9 -15 0 -10 10 -15 33 -15 34 0
89 -29 57 -30 -9 0 -22 6 -29 13 -11 10 -13 9 -9 -3 3 -10 26 -19 64 -25 33
-5 71 -18 85 -28 l24 -18 -27 6 c-15 3 -37 0 -47 -7 -16 -10 -23 -9 -39 5 -20
19 -52 23 -52 7 0 -20 -68 -11 -83 11 -10 13 -26 20 -48 21 -23 0 -41 9 -56
26 -13 14 -23 27 -23 30 0 2 20 2 44 0 38 -5 45 -3 50 15 3 13 10 18 21 13 9
-3 21 -6 26 -6z m-673 -55 c6 -3 12 -11 12 -20 0 -23 37 -55 63 -55 13 0 28
-5 34 -11 6 -6 34 -11 62 -11 28 0 54 -4 56 -9 3 -4 12 -6 20 -2 9 3 15 -1 15
-11 0 -17 -25 -22 -35 -7 -3 5 -30 9 -60 8 -31 -1 -60 4 -67 11 -17 17 -63 15
-78 -3 -9 -10 -9 -15 -1 -16 6 -1 16 -2 23 -3 6 0 13 -6 15 -12 2 -7 -17 -11
-57 -10 -64 1 -71 7 -41 33 11 9 17 21 14 26 -3 6 7 8 26 5 20 -3 30 -1 28 6
-2 6 -35 12 -76 13 -82 2 -98 8 -53 20 27 7 29 10 18 25 -7 10 -29 19 -50 20
-20 2 -36 6 -36 9 0 6 145 1 168 -6z m-3618 -40 c0 -9 -10 -19 -22 -24 -29
-11 -10 -20 43 -22 63 -2 83 3 91 24 6 14 17 18 50 15 38 -3 43 -6 43 -28 0
-24 -3 -25 -48 -22 -35 2 -58 -3 -83 -17 -19 -11 -34 -16 -34 -11 0 6 -22 10
-50 10 -38 0 -50 4 -50 15 0 8 -9 15 -20 15 -14 0 -20 7 -20 23 0 33 7 37 57
37 32 0 43 -4 43 -15z m3185 -9 c14 -10 26 -11 43 -5 28 11 49 2 33 -14 -16
-16 -13 -37 4 -37 27 0 15 -19 -17 -28 -38 -10 -48 -7 -48 15 0 15 -2 14 -18
0 -10 -10 -24 -17 -30 -17 -7 0 -12 -5 -12 -11 0 -6 7 -9 15 -5 24 9 75 -5 75
-20 0 -12 -18 -19 -41 -16 -4 1 -21 -3 -39 -8 -28 -8 -33 -7 -37 10 -6 22 -18
26 -29 9 -4 -8 -9 -8 -18 1 -8 8 -7 13 4 20 11 7 7 12 -18 27 -37 21 -43 39
-9 28 49 -17 123 -17 136 -1 18 21 -2 46 -29 39 -14 -4 -20 0 -20 11 0 20 29
21 55 2z m-6779 -30 c29 -22 11 -30 -84 -37 -48 -3 -80 -7 -72 -7 12 -2 12 -4
1 -14 -10 -10 -15 -10 -18 -2 -4 13 -253 9 -263 -4 -3 -4 -38 -7 -78 -7 -84 0
-100 20 -24 31 26 4 58 11 71 16 14 5 28 5 35 0 15 -13 188 -13 228 -1 18 6
61 10 94 9 47 -1 63 3 67 15 8 19 18 19 43 1z m-13 -71 c8 -8 17 -12 20 -9 3
3 51 6 106 5 58 0 101 4 101 9 0 13 33 13 46 1 5 -6 47 -14 94 -19 68 -7 88
-7 101 4 21 18 30 18 22 -2 -5 -14 11 -15 133 -14 173 2 164 3 164 -13 0 -20
-151 -21 -345 -2 -209 19 -198 20 -183 -5 7 -11 21 -20 31 -20 28 0 47 -23 35
-43 -7 -13 -5 -17 7 -17 10 0 15 -7 13 -17 -3 -14 -13 -18 -46 -16 -39 2 -42
0 -36 -19 5 -17 3 -20 -10 -15 -9 4 -15 2 -13 -5 4 -21 -64 -15 -75 6 -12 22
-28 10 -31 -23 -1 -20 -27 -31 -27 -12 0 13 -102 19 -118 8 -15 -12 -57 27
-46 44 4 7 -3 10 -17 9 -44 -4 -69 0 -69 10 0 5 11 12 25 16 18 4 25 13 25 30
0 16 6 24 18 24 16 1 16 2 0 13 -15 12 -15 14 3 25 11 7 25 10 32 6 9 -5 9 -4
1 5 -7 8 -19 9 -35 3 -83 -32 -139 -41 -139 -22 0 19 -21 10 -30 -12 -7 -18
-9 -19 -9 -5 -1 15 -12 17 -96 17 -73 0 -93 -3 -89 -13 3 -9 -6 -13 -34 -12
-29 0 -38 4 -34 14 4 10 1 11 -11 5 -25 -14 -97 -5 -97 12 0 8 10 14 23 14 45
0 353 9 372 10 76 7 173 25 169 32 -9 14 34 9 49 -7z m-4573 -4 c0 -16 46 -21
131 -11 195 21 279 23 279 8 0 -11 -32 -17 -142 -27 -79 -7 -159 -15 -178 -16
-19 -2 -45 -4 -57 -4 -16 -1 -23 -7 -23 -20 0 -12 -9 -21 -26 -25 -29 -8 -45
1 -26 13 10 6 10 11 -3 21 -8 7 -15 25 -15 41 0 26 4 29 30 29 17 0 30 -4 30
-9z m2423 -52 c5 -17 10 -19 41 -13 36 6 36 6 36 -29 0 -24 -6 -39 -17 -46
-15 -8 -15 -11 -3 -25 19 -24 1 -38 -38 -30 -30 6 -36 19 -9 19 5 0 12 6 15
13 3 10 -5 13 -29 10 -33 -3 -34 -4 -31 -44 2 -35 -2 -42 -23 -52 -15 -7 -25
-20 -25 -32 0 -11 -4 -20 -10 -20 -5 0 -10 9 -10 20 0 21 -14 27 -24 11 -3 -5
-16 -7 -29 -3 -20 5 -21 4 -8 -11 7 -9 21 -17 31 -17 15 0 16 -4 6 -35 -10
-34 -12 -35 -26 -17 -11 14 -25 17 -57 14 -46 -4 -56 -17 -23 -27 11 -3 20
-11 20 -16 0 -6 -8 -8 -18 -5 -14 5 -23 -4 -39 -41 -12 -27 -17 -49 -12 -51 5
-2 9 -8 9 -13 0 -6 -4 -8 -9 -4 -13 7 -41 64 -41 82 0 20 -31 16 -75 -12 -29
-17 -35 -24 -20 -25 15 0 17 -2 6 -12 -14 -15 -111 -18 -112 -3 0 5 -4 2 -8
-8 -4 -10 -10 -18 -14 -18 -6 1 -18 -10 -86 -73 -39 -37 -41 -59 -5 -50 20 5
25 3 22 -7 -5 -14 -15 -20 -100 -58 -27 -11 -48 -26 -48 -31 0 -6 -5 -8 -11
-4 -7 4 -7 9 -2 13 6 3 13 30 16 60 4 30 11 57 17 61 12 7 3 40 -11 40 -5 0
-9 14 -9 30 0 24 4 30 21 30 11 0 29 -5 40 -11 17 -9 20 -7 18 13 -4 41 1 68
11 68 6 0 10 -13 10 -30 0 -16 2 -30 4 -30 2 0 12 -3 21 -7 14 -5 16 -2 10 17
-7 21 -5 22 27 16 36 -7 78 14 78 39 0 18 43 42 47 28 2 -6 9 -17 16 -26 11
-14 17 -14 65 1 60 19 67 32 16 32 -20 0 -33 4 -29 10 3 5 12 7 20 3 8 -3 15
-1 15 5 0 5 -7 12 -15 16 -11 4 -14 13 -9 31 6 25 -8 35 -21 15 -3 -5 -23 -10
-43 -10 -41 0 -34 17 10 22 15 2 31 7 35 12 7 7 -21 4 -98 -10 -21 -4 -26 -9
-21 -26 3 -14 1 -19 -6 -14 -7 4 -12 13 -12 19 0 7 -16 13 -38 14 -25 1 -31
-1 -18 -6 19 -7 31 -51 14 -51 -4 0 -8 8 -8 18 0 10 -3 13 -8 7 -6 -10 -118
-45 -142 -45 -5 0 -10 11 -10 25 0 19 8 28 36 40 20 8 45 15 56 15 16 0 19 5
14 25 -4 14 -2 25 4 25 5 0 10 7 10 15 0 11 -7 14 -22 11 -80 -17 -98 -17 -98
-1 0 8 -4 15 -10 15 -5 0 -10 7 -10 15 0 8 5 15 10 15 6 0 10 -7 10 -15 0 -18
12 -18 82 -4 144 29 187 37 227 38 25 1 50 5 55 10 6 5 27 9 46 10 30 2 64 5
93 10 5 0 5 6 2 12 -6 9 -24 8 -92 -8 -13 -3 -23 -1 -23 5 0 5 21 13 46 17 26
3 53 9 60 12 8 3 14 -1 14 -10 0 -25 11 -26 75 -11 33 7 75 14 93 14 32 0 43
14 20 23 -8 3 -6 6 5 6 9 1 17 -3 17 -9 0 -5 6 -10 14 -10 9 0 12 7 9 20 -3
11 -1 20 5 20 5 0 12 -9 15 -21z m9265 -49 c18 -31 49 -39 70 -18 8 8 15 8 27
-2 14 -11 19 -7 16 13 -1 5 3 6 9 2 5 -3 10 1 10 10 0 9 4 14 9 11 5 -4 4 -17
-2 -32 -10 -20 -17 -24 -39 -20 -16 3 -28 2 -28 -3 0 -12 62 -20 109 -14 25 4
41 11 41 19 0 8 6 14 14 14 9 0 12 -7 9 -20 -5 -20 -2 -21 77 -35 48 -8 62 -9
80 -4 8 2 14 -2 13 -8 -4 -18 14 -16 21 2 3 8 15 15 26 15 11 0 20 5 20 12 0
9 3 9 12 0 7 -7 25 -12 40 -12 15 0 28 -4 28 -8 0 -4 12 -9 27 -10 33 -3 48
-16 40 -36 -7 -18 -62 -22 -72 -6 -3 6 1 10 9 10 9 0 16 5 16 10 0 18 -27 10
-42 -12 -10 -14 -20 -19 -32 -15 -9 4 -14 12 -10 18 3 6 0 15 -7 20 -23 14
-37 10 -32 -10 4 -16 0 -18 -49 -13 -29 2 -61 8 -70 13 -9 5 -30 9 -47 9 -23
0 -31 5 -31 18 -1 16 -1 16 -14 0 -10 -14 -25 -16 -91 -12 -43 3 -82 7 -87 10
-5 3 -16 0 -25 -8 -12 -9 -15 -9 -9 0 6 11 -4 16 -20 10 -3 -2 -14 13 -24 32
-10 19 -28 37 -41 40 -28 7 -36 27 -12 33 36 9 44 6 61 -23z m-5221 -121 c-14
-8 -18 -22 -16 -62 1 -29 1 -57 0 -63 -1 -9 -71 -34 -95 -34 -3 0 -6 34 -6 75
0 73 0 75 28 81 15 3 32 7 37 9 6 2 24 4 40 4 26 0 27 -1 12 -10z m-5530 -59
c-3 -10 1 -24 8 -30 10 -8 11 -18 5 -35 -6 -15 -6 -27 0 -30 6 -3 5 -16 -1
-33 -7 -18 -7 -28 0 -30 7 -2 8 -10 1 -21 -5 -10 -7 -21 -4 -24 12 -12 -8 -48
-23 -43 -9 4 -13 1 -11 -6 3 -7 13 -13 24 -13 12 0 18 -6 15 -15 -7 -30 -6
-212 1 -216 4 -3 2 -16 -4 -30 -18 -38 -26 -11 -24 77 1 63 -1 76 -14 74 -8
-1 -9 0 -2 2 18 7 15 40 -5 52 -10 6 -13 11 -7 11 5 0 15 -5 22 -12 22 -22 14
18 -9 43 -14 17 -22 20 -25 12 -6 -15 -24 -18 -24 -5 0 9 50 37 61 34 3 0 6 5
6 13 0 8 -3 12 -7 10 -3 -2 -12 0 -20 6 -13 7 -12 9 3 9 27 0 27 86 -1 109
-15 12 -15 13 4 9 17 -5 20 -2 16 14 -2 11 -11 22 -18 25 -8 3 -14 9 -14 14 0
6 9 5 21 -2 19 -10 20 -8 14 10 -3 11 -3 25 0 31 10 17 18 11 12 -10z m10534
-68 c7 -22 16 -32 25 -28 8 3 15 0 16 -7 0 -7 2 -16 2 -22 3 -21 18 -35 37
-35 10 0 19 4 19 9 0 5 9 12 19 16 11 3 21 15 23 26 3 19 6 19 60 -10 32 -17
65 -31 74 -31 12 0 14 -3 6 -13 -14 -16 -1 -69 17 -75 8 -3 11 0 7 7 -4 6 -2
11 3 11 6 0 11 -7 11 -15 0 -22 17 -18 23 5 5 20 6 20 40 -2 19 -13 30 -26 25
-29 -6 -4 -6 -9 2 -14 6 -4 9 -13 6 -21 -3 -7 1 -20 9 -28 20 -19 19 -32 -2
-40 -10 -3 -25 -9 -33 -12 -10 -5 -8 1 5 16 l20 23 -25 -14 c-14 -8 -26 -15
-28 -16 -2 -1 1 -11 8 -22 6 -12 8 -21 4 -21 -15 0 -84 45 -84 54 0 6 -14 17
-31 25 -17 8 -44 27 -60 43 -15 17 -32 27 -37 24 -13 -8 -62 17 -62 32 0 7 -4
11 -9 7 -5 -3 -12 -1 -16 5 -6 10 -93 53 -110 54 -5 1 -12 3 -15 6 -13 13 -51
30 -67 30 -10 0 -24 10 -32 21 -13 21 -12 22 27 15 25 -4 43 -2 47 5 4 6 13 8
21 5 8 -3 14 1 14 8 0 8 6 17 13 20 6 2 1 4 -12 3 -13 -1 -26 3 -28 9 -2 7 8
11 27 10 25 -1 32 -7 41 -34z m-8961 -32 c0 -5 -9 -14 -20 -20 -23 -12 -55
-58 -47 -66 3 -4 20 -1 38 5 27 9 30 9 19 -4 -8 -10 -31 -15 -69 -15 -98 -1
-131 -13 -184 -72 -52 -58 -66 -90 -47 -113 16 -19 7 -31 -30 -38 -39 -8 -39
-27 0 -27 17 0 30 5 30 11 0 6 8 9 18 7 10 -3 23 1 31 9 17 18 44 -2 36 -27
-4 -14 0 -16 25 -12 17 2 30 0 30 -6 0 -12 -31 -24 -51 -20 -7 2 -17 -9 -23
-24 -11 -30 0 -51 14 -28 6 8 10 10 10 4 0 -6 10 -22 23 -35 24 -26 28 -49 12
-62 -5 -5 0 -5 13 -2 16 5 22 2 22 -9 0 -9 7 -16 15 -16 7 0 18 -6 22 -14 4
-7 18 -18 31 -25 12 -6 22 -19 22 -27 0 -10 6 -13 19 -9 19 6 49 -20 38 -32
-14 -13 17 -33 49 -33 19 0 34 -4 34 -10 0 -16 21 -12 43 8 20 16 20 16 13 -3
-9 -23 -9 -23 -7 -54 0 -13 4 -22 7 -18 4 3 13 0 20 -8 19 -18 18 -24 -3 -19
-11 2 -25 -6 -35 -20 -17 -23 -17 -24 13 -22 17 1 37 9 44 19 7 9 20 17 29 17
9 0 16 5 16 10 0 22 16 8 25 -22 7 -22 16 -33 28 -32 22 2 22 3 -12 -34 -17
-20 -34 -30 -43 -27 -9 4 -18 -1 -22 -12 -7 -16 3 -27 20 -23 4 1 11 -4 15
-12 8 -11 11 -11 18 1 5 7 13 11 19 7 5 -3 24 -3 41 0 32 7 42 30 16 40 -8 4
-15 13 -15 21 0 9 6 13 14 10 8 -3 17 -3 20 1 14 13 46 8 46 -8 0 -22 20 -40
45 -40 11 0 31 -7 43 -16 17 -11 22 -12 22 -2 0 7 11 14 24 14 33 2 44 -38 20
-73 -13 -21 -14 -27 -3 -35 9 -5 4 -6 -13 -2 -33 7 -46 -13 -29 -45 10 -17 7
-23 -14 -37 -22 -14 -30 -15 -52 -5 -19 9 -23 15 -14 20 7 5 14 29 17 56 3 45
3 47 -21 41 -19 -5 -24 -2 -27 16 -2 12 -10 24 -18 26 -12 4 -13 3 -2 -10 12
-16 6 -52 -8 -43 -4 2 -18 -7 -30 -20 -27 -29 -45 -31 -97 -11 -65 24 -93 28
-87 12 5 -14 -7 -15 -73 -7 -7 0 -13 7 -13 15 0 8 -6 17 -12 20 -7 3 10 3 37
0 l50 -5 -48 23 c-26 13 -45 28 -43 35 3 6 -4 13 -14 16 -13 3 -17 11 -13 26
3 12 9 21 14 21 5 0 9 11 9 25 0 16 6 25 16 25 8 0 13 4 9 9 -3 5 -1 12 5 16
23 14 7 23 -37 21 -47 -2 -48 -3 -48 -33 0 -18 -5 -37 -10 -42 -12 -12 -55 -3
-55 10 0 5 -9 9 -20 9 -27 0 -115 49 -143 79 -12 13 -16 21 -9 17 7 -4 15 -1
18 9 9 22 -2 30 -20 16 -11 -10 -20 -10 -36 -1 -18 9 -21 18 -16 41 5 25 2 30
-22 35 -15 4 -36 14 -46 23 -14 12 -20 13 -23 4 -8 -22 -50 -14 -81 15 -28 26
-29 31 -27 102 1 41 -3 78 -8 81 -5 4 -2 21 8 43 9 20 15 43 11 51 -6 17 30
55 54 55 9 0 16 -9 17 -21 3 -31 11 -35 28 -13 21 27 18 42 -7 47 -20 4 -19 4
5 6 28 1 37 15 15 24 -8 4 -4 8 10 12 12 4 22 15 22 25 0 9 11 34 25 54 14 20
25 40 25 44 0 12 44 47 56 44 7 -1 14 7 17 18 3 11 12 20 21 20 9 0 16 6 16
13 0 13 44 15 72 3 10 -5 26 -2 40 8 25 18 78 22 78 6z m-2100 -9 c0 -16 -13
-20 -131 -37 -251 -35 -258 -36 -454 -54 -60 -5 -121 -12 -135 -15 -14 -2 -97
-9 -185 -15 -88 -6 -176 -12 -195 -15 -96 -11 -242 -27 -305 -32 -38 -3 -74
-6 -79 -6 -5 -1 -11 3 -13 10 -6 15 18 20 132 28 50 3 148 12 220 20 120 13
266 27 440 41 39 3 99 10 135 15 36 6 112 14 170 19 58 4 124 13 148 19 23 7
46 10 50 8 4 -3 43 1 87 8 104 16 115 17 115 6z m13793 -108 c4 -2 7 -18 7
-36 0 -23 3 -28 11 -20 6 6 18 9 25 6 9 -3 14 2 14 16 0 23 22 27 64 11 31
-11 34 -40 6 -47 -34 -9 -22 -23 20 -23 22 0 40 5 40 10 0 6 -4 10 -10 10 -5
0 -10 9 -10 20 0 11 5 20 10 20 6 0 10 -9 10 -19 0 -29 18 -35 22 -9 2 18 8
22 28 19 14 -1 28 -7 31 -13 3 -5 10 -9 15 -9 5 0 9 -9 9 -22 0 -17 7 -23 28
-25 25 -3 27 -1 22 21 -7 27 5 40 28 32 9 -4 14 -22 15 -50 0 -38 -3 -45 -20
-45 -15 0 -18 -5 -13 -19 7 -23 -14 -39 -26 -20 -5 8 -7 22 -5 32 2 9 3 17 3
18 -1 0 -38 6 -82 14 -44 8 -95 17 -112 21 -22 4 -33 2 -33 -5 0 -6 7 -11 15
-11 10 0 15 -11 15 -35 0 -32 -2 -35 -27 -33 -35 3 -43 13 -43 61 0 34 -2 37
-30 37 -16 0 -30 4 -30 8 0 5 -21 9 -47 11 -63 3 -75 12 -80 56 l-4 37 63 -7
c35 -4 66 -9 71 -12z m-4928 -33 c43 -1 239 -37 209 -39 -15 -1 -24 -72 -12
-88 5 -7 7 -17 3 -23 -3 -5 -1 -10 4 -10 6 0 11 6 11 14 0 19 14 28 34 20 19
-7 21 -24 3 -24 -7 0 -19 -9 -27 -20 -10 -14 -17 -16 -27 -8 -7 5 -26 8 -43 6
-21 -3 -30 0 -33 11 -3 9 -5 -16 -6 -54 0 -39 -6 -76 -13 -83 -13 -13 -11 -14
69 -32 61 -14 72 -10 65 26 -3 18 -1 25 6 20 6 -4 9 -13 6 -20 -7 -17 28 -30
56 -21 14 5 20 2 20 -9 0 -9 7 -16 15 -16 8 0 25 -10 36 -21 12 -12 32 -22 45
-23 33 -2 30 -13 -6 -21 -17 -4 -28 -11 -24 -16 3 -5 3 -9 0 -9 -3 0 -12 15
-21 33 -10 22 -27 37 -51 46 -43 16 -48 12 -34 -24 8 -22 14 -25 22 -17 20 20
40 14 36 -10 -2 -18 -9 -23 -30 -23 -19 1 -24 -3 -17 -11 5 -6 24 -11 42 -11
18 1 38 -2 45 -7 17 -10 15 -36 -3 -36 -8 0 -15 -4 -15 -10 0 -6 9 -6 26 0 37
14 49 13 34 -5 -10 -12 -10 -15 4 -15 9 0 16 -3 16 -6 0 -15 -29 -29 -63 -29
-31 0 -40 5 -49 27 -12 27 -34 38 -75 38 -18 0 -23 6 -23 25 0 16 6 25 15 25
8 0 15 5 15 10 0 6 -7 10 -15 10 -8 0 -15 5 -15 11 0 6 -9 8 -20 4 -31 -10
-21 26 10 37 8 3 -4 9 -28 13 -23 4 -45 11 -48 16 -2 5 -20 1 -38 -8 -23 -10
-45 -13 -70 -9 -46 9 -54 23 -13 24 57 2 67 3 67 11 0 18 -44 27 -81 17 -34
-9 -40 -7 -58 15 -17 20 -19 33 -14 74 7 57 14 64 63 65 19 0 46 7 60 15 l25
13 -30 13 c-39 16 -59 20 -122 20 -42 0 -53 4 -54 17 0 14 -2 14 -6 2 -15 -38
-60 -49 -110 -28 -52 22 -86 62 -43 51 14 -4 20 0 20 11 0 9 9 27 21 39 20 21
21 21 17 2 -2 -16 2 -19 20 -18 17 2 22 -2 22 -22 0 -14 5 -25 10 -25 6 0 10
9 10 20 0 28 58 27 90 0 13 -11 27 -17 32 -12 13 13 -2 42 -18 35 -8 -3 -14
-1 -14 5 0 6 -3 19 -6 29 -6 15 -4 16 7 6 7 -7 36 -13 64 -13z m4008 -162 c7
-59 2 -716 -5 -724 -10 -9 -17 205 -18 489 0 161 3 287 8 287 5 0 12 -24 15
-52z m-8001 -4 c17 -9 39 -13 50 -11 10 3 31 -1 46 -8 59 -30 236 -78 286 -77
37 1 46 -2 31 -8 l-20 -9 20 -2 c11 -1 25 -3 30 -3 6 -1 15 -5 22 -9 6 -4 14
-3 18 3 11 18 27 11 20 -10 -6 -18 -2 -19 46 -13 49 6 51 5 44 -15 -4 -16 -2
-22 8 -22 9 0 17 6 20 13 5 16 57 -10 57 -29 0 -7 5 -16 12 -20 7 -4 8 -3 4 5
-5 8 3 11 28 9 20 -2 36 -6 36 -11 0 -4 0 -11 0 -16 0 -5 -10 -7 -22 -5 -21 4
-21 4 -3 -4 11 -5 34 -6 52 -1 18 4 36 3 39 -2 3 -5 10 -7 15 -4 5 4 9 3 9 -2
-1 -29 -52 -49 -71 -27 -6 8 -15 12 -19 9 -4 -3 -21 2 -36 10 -16 8 -35 15
-41 15 -7 0 -13 4 -13 8 0 11 -51 36 -68 33 -6 -1 -56 14 -110 33 -53 19 -133
44 -177 56 -44 13 -116 33 -160 45 -44 13 -123 33 -175 46 -52 12 -99 26 -104
31 -18 15 94 8 126 -8z m-909 -38 c26 -3 47 -1 47 3 0 10 126 3 225 -13 44 -7
65 -19 65 -36 0 -15 5 -17 28 -11 29 8 82 -5 82 -20 0 -5 -12 -6 -26 -3 -19 5
-25 4 -20 -5 9 -14 63 -14 72 1 4 7 3 8 -4 4 -7 -4 -12 -1 -12 8 0 15 -31 38
-47 35 -4 -1 -21 4 -38 11 -25 11 -27 14 -11 18 10 2 23 -1 29 -7 6 -6 22 -11
35 -11 14 0 41 -15 63 -35 22 -19 46 -35 55 -35 14 0 14 -2 3 -16 -12 -14 -14
-14 -25 0 -12 18 -44 22 -44 6 0 -5 7 -10 15 -10 8 0 20 -9 27 -19 11 -19 30
-18 55 2 15 11 183 17 183 6 0 -4 -7 -9 -15 -13 -8 -3 -15 -9 -15 -14 0 -11
66 -42 90 -42 10 0 20 -4 22 -9 2 -8 55 -18 107 -20 8 -1 11 -7 7 -18 -4 -9
-1 -20 6 -25 10 -8 10 -11 1 -15 -16 -6 -17 -33 -3 -33 6 0 26 6 45 14 19 8
37 11 40 6 3 -5 -4 -11 -15 -15 -11 -3 -20 -15 -20 -25 0 -13 -15 -23 -52 -35
-68 -22 -102 -22 -218 3 -52 11 -116 23 -142 27 -26 3 -50 10 -53 16 -4 5 -24
9 -45 9 -21 0 -41 4 -44 9 -6 10 -87 8 -103 -2 -18 -12 -68 9 -65 26 2 11 -4
17 -17 17 -11 0 -27 13 -38 30 -13 22 -25 30 -46 30 -27 0 -57 19 -57 36 0 5
5 3 12 -4 15 -15 42 -16 33 -2 -4 7 3 8 20 4 19 -5 30 -1 40 12 8 11 15 22 15
25 0 8 -52 1 -125 -16 -64 -15 -235 -18 -235 -3 0 4 -21 8 -46 8 -46 0 -46 0
-42 30 5 30 4 30 -86 60 -50 16 -82 30 -71 30 11 1 31 4 45 6 49 9 191 10 196
2 11 -17 44 -8 44 12 0 11 5 18 13 15 6 -2 33 -6 60 -9z m-555 -58 c15 -15 16
-48 1 -48 -5 0 -7 -4 -4 -10 3 -5 -1 -10 -9 -10 -9 0 -16 -4 -16 -9 0 -5 -23
-17 -51 -27 -28 -10 -46 -20 -40 -22 16 -5 13 -32 -3 -32 -7 0 -16 9 -19 20
-8 31 -27 24 -27 -10 0 -16 -5 -30 -11 -30 -6 0 -9 9 -6 20 6 21 0 25 -21 11
-7 -4 -12 -14 -10 -21 2 -8 -5 -16 -15 -18 -10 -2 -16 0 -15 5 2 4 -1 9 -7 10
-15 4 -78 -8 -90 -17 -5 -4 -19 -10 -30 -13 -11 -3 0 -3 25 0 25 3 50 10 57
15 19 15 33 0 33 -35 0 -28 -5 -34 -45 -50 -53 -22 -77 -19 -90 11 -5 12 -13
22 -17 22 -5 0 -8 7 -8 15 0 8 -4 15 -10 15 -5 0 -10 -10 -10 -22 0 -13 -4
-30 -9 -37 -8 -12 -11 -9 -16 12 -4 15 -11 27 -15 27 -5 0 -6 -8 -3 -19 3 -11
-2 -21 -11 -24 -11 -5 -16 -1 -16 13 0 11 -4 20 -10 20 -5 0 -10 -8 -10 -18 0
-10 -7 -27 -15 -38 -14 -18 -14 -18 -15 7 0 14 -3 28 -6 32 -9 8 -35 -4 -29
-14 3 -4 3 -20 -1 -35 -6 -24 -8 -25 -18 -8 -6 11 -11 23 -11 27 0 4 -6 11
-12 15 -7 4 -14 19 -15 32 -2 18 2 25 17 28 11 1 29 8 41 13 11 6 24 9 30 8 9
-2 23 2 72 22 34 13 40 11 45 -13 4 -20 4 -19 6 5 1 20 6 27 20 27 11 0 22 -8
25 -17 3 -11 4 -9 3 6 -2 21 6 26 63 46 72 24 106 37 165 63 43 19 76 17 88
-4 4 -8 17 -14 29 -14 21 0 22 18 3 63 -5 13 -2 17 12 17 10 0 24 -5 31 -12z
m8529 -58 c7 0 13 -8 14 -17 1 -12 4 -10 9 7 7 22 8 21 9 -13 1 -31 6 -39 27
-47 22 -9 25 -14 19 -39 -4 -20 -2 -30 9 -34 11 -4 13 -16 9 -46 -5 -34 -3
-41 11 -41 10 0 16 -8 16 -21 0 -16 -3 -19 -13 -11 -7 6 -18 7 -25 3 -13 -8
-109 3 -120 13 -13 14 22 34 54 32 19 -2 36 0 38 3 8 12 -34 53 -61 60 -37 10
-44 41 -9 41 28 0 35 14 11 24 -8 3 -15 12 -15 21 0 8 -6 15 -13 15 -20 0 -61
47 -48 55 6 3 11 13 11 22 0 9 8 22 18 29 15 12 18 9 26 -22 5 -18 15 -34 23
-34z m-9942 50 c-3 -5 5 -21 17 -36 61 -70 68 -75 91 -69 16 5 18 4 8 -4 -12
-8 -12 -12 -2 -25 8 -9 20 -16 27 -16 8 0 14 -6 14 -14 0 -7 8 -16 18 -20 21
-7 55 -28 63 -39 3 -5 17 -14 30 -21 13 -7 34 -19 46 -26 19 -12 25 -12 35 -1
10 10 10 15 1 18 -8 3 -9 12 -3 31 5 15 8 34 7 42 -1 8 3 17 8 20 6 3 11 -21
12 -62 1 -61 -1 -68 -18 -69 -31 -2 -37 -4 -44 -10 -3 -4 -23 8 -43 27 -38 35
-69 43 -90 22 -9 -9 -12 -8 -12 5 0 10 -8 21 -17 24 -10 4 -21 11 -25 17 -4 6
-15 11 -25 11 -12 0 -19 9 -21 28 -3 22 -6 26 -16 17 -10 -8 -18 -4 -32 17
-10 16 -30 39 -46 53 -30 26 -37 50 -14 50 7 0 16 9 19 20 3 11 8 20 12 20 3
0 4 -4 0 -10z m2980 -63 c74 -25 75 -25 50 -44 -20 -16 -20 -16 0 -8 47 17 58
18 67 1 5 -9 22 -16 41 -17 32 0 32 0 7 -11 -55 -23 -145 -39 -165 -29 -11 5
-47 20 -80 33 -38 16 -61 32 -64 44 -4 22 48 67 69 58 8 -3 42 -15 75 -27z
m3406 21 c1 -7 0 -19 -1 -27 -1 -11 2 -10 15 3 22 22 31 20 40 -6 9 -27 9 -28
-1 -52 -7 -17 -4 -19 34 -13 41 5 59 -8 25 -19 -10 -3 -26 -10 -37 -15 -13 -7
-16 -7 -11 0 3 7 -2 11 -14 11 -20 0 -23 -4 -25 -40 -2 -23 -33 -24 -39 0 -3
11 -13 20 -24 20 -34 0 -52 52 -40 113 7 34 11 37 42 37 21 0 35 -5 36 -12z
m-7126 -35 c0 -21 5 -29 20 -31 16 -2 24 -15 34 -58 7 -31 25 -84 41 -117 21
-45 26 -65 18 -74 -7 -9 -7 -13 1 -13 6 0 11 -7 11 -16 0 -14 -3 -14 -15 -4
-12 10 -15 9 -15 -5 0 -10 -8 -24 -17 -31 -25 -17 -11 -27 27 -19 21 5 30 11
26 21 -3 8 -2 14 3 14 11 0 31 -46 31 -71 0 -16 -4 -19 -21 -14 -20 7 -21 5
-15 -21 4 -16 9 -31 11 -33 6 -5 31 21 37 39 4 10 10 5 18 -17 7 -18 16 -33
21 -33 5 0 9 -6 9 -12 1 -17 35 -58 49 -58 6 0 11 -16 11 -36 0 -29 -3 -35
-16 -30 -9 3 -23 6 -31 6 -15 0 -15 2 0 18 20 22 6 55 -15 34 -6 -6 -22 -12
-34 -12 -18 0 -22 5 -20 33 1 28 -2 32 -21 29 -14 -2 -23 2 -23 10 0 16 -61
22 -71 6 -4 -6 -12 -7 -18 -4 -16 10 -14 26 3 26 25 0 28 18 6 40 -31 31 -51
20 -40 -20 8 -27 6 -31 -8 -28 -13 2 -16 12 -14 36 2 17 0 32 -5 32 -4 0 -8
11 -8 25 0 31 12 33 18 3 3 -14 5 -8 6 15 1 25 -4 40 -14 43 -13 5 -13 8 0 21
18 18 20 80 3 86 -10 4 -10 7 0 18 15 16 17 162 2 190 -6 11 -8 24 -5 29 11
18 21 10 20 -17z m2295 0 c0 -15 1 -15 18 0 18 17 54 14 79 -6 7 -5 20 -6 29
-3 22 8 84 -15 84 -31 0 -7 -9 -13 -20 -13 -11 0 -20 5 -20 11 0 5 -5 7 -10 4
-19 -12 -85 -14 -98 -3 -9 8 -11 7 -7 -4 8 -20 -41 -38 -99 -38 -23 0 -73 -9
-111 -20 -72 -21 -103 -25 -91 -13 7 7 17 10 69 20 15 3 27 9 27 13 0 5 12 10
27 12 33 4 42 27 14 35 -13 3 -21 12 -19 21 6 29 26 23 39 -13 15 -39 32 -41
37 -4 2 13 9 30 14 37 15 17 38 15 38 -5z m-4250 -6 c-14 -6 -30 -16 -36 -22
-7 -5 -37 -32 -68 -58 -93 -81 -117 -166 -66 -237 12 -17 19 -30 16 -30 -2 0
11 -17 30 -37 53 -56 103 -146 110 -197 4 -25 11 -43 15 -40 5 3 7 10 4 15 -4
5 -2 16 3 25 12 22 24 -175 12 -213 -4 -15 -22 -66 -39 -113 -18 -47 -39 -105
-47 -130 -17 -47 -25 -67 -70 -165 -19 -41 -29 -54 -32 -42 -4 18 -4 18 -18 0
-12 -17 -13 -17 -14 0 0 9 5 17 10 17 6 0 11 8 11 18 1 16 2 16 6 0 7 -29 22
-20 29 17 3 19 11 35 16 35 7 0 8 15 4 39 -7 46 0 72 19 65 16 -6 28 37 19 71
-4 15 -2 25 5 25 6 0 11 -8 12 -17 0 -13 3 -11 10 6 5 13 7 38 3 56 -3 19 -1
35 5 39 5 4 13 27 17 51 3 25 10 48 15 51 12 7 11 44 -1 44 -5 0 -12 -22 -16
-50 -4 -27 -10 -50 -15 -50 -5 0 -9 -9 -9 -20 0 -11 -6 -30 -12 -41 -10 -17
-10 -23 0 -26 6 -3 12 -12 12 -21 -1 -14 -3 -14 -16 3 -15 19 -12 74 4 100 6
9 14 147 14 222 -1 39 -60 166 -98 208 -24 28 -26 28 -19 6 5 -16 4 -21 -4
-17 -18 12 -71 129 -71 159 0 56 56 136 140 199 42 31 111 68 125 67 5 0 -1
-6 -15 -12z m12034 0 c15 -11 17 -27 14 -129 -3 -97 -7 -120 -22 -137 -22 -24
-42 -27 -49 -8 -4 7 -6 6 -6 -5 -1 -10 10 -19 29 -23 46 -10 46 -25 0 -25 -37
0 -41 -2 -35 -20 5 -16 2 -20 -15 -20 -12 0 -18 -4 -15 -10 3 -5 -1 -10 -10
-10 -9 0 -42 -22 -73 -49 -58 -49 -153 -109 -272 -171 -36 -18 -72 -37 -80
-41 -8 -5 -31 -15 -50 -23 -19 -8 -75 -33 -125 -55 -70 -31 -93 -37 -108 -29
-26 13 -15 21 78 53 74 26 99 36 180 78 17 8 66 32 110 53 79 37 148 83 214
143 53 48 31 37 -71 -34 -83 -58 -118 -76 -118 -60 0 3 28 25 62 50 64 47 66
56 5 30 -45 -19 -44 -19 -50 5 -4 15 -10 18 -24 13 -17 -6 -17 -5 -2 13 9 10
19 36 23 56 l7 36 26 -24 c20 -19 28 -21 35 -12 6 10 10 10 18 -2 5 -8 10 -23
10 -32 0 -20 16 -32 30 -23 6 4 3 16 -7 32 -12 18 -14 28 -6 30 6 2 9 13 6 23
-4 15 0 20 16 20 27 0 27 16 1 23 -17 4 -20 10 -14 34 9 37 22 51 29 30 10
-24 36 -9 29 17 -4 18 1 24 30 34 32 12 42 27 37 56 -3 13 20 36 30 30 5 -3 9
-16 9 -30 0 -14 4 -22 10 -19 6 3 10 15 10 26 0 10 4 19 9 19 16 0 21 -30 9
-50 -10 -15 -10 -22 0 -32 9 -9 12 -8 12 5 0 22 16 22 24 0 6 -14 10 -12 22
13 15 28 15 74 -1 137 -8 30 1 34 29 14z m-346 -36 c7 -4 16 -21 21 -37 4 -16
18 -35 32 -41 23 -12 23 -13 -13 -13 -21 0 -38 5 -38 10 0 6 -18 10 -40 10
-37 0 -39 -2 -31 -22 5 -14 23 -28 47 -36 45 -15 40 -11 49 -41 7 -21 5 -23
-24 -16 -17 3 -58 8 -91 9 -33 2 -63 6 -66 9 -7 7 17 87 26 87 4 0 13 -7 20
-15 18 -22 32 -18 20 5 -6 11 -18 20 -26 20 -9 0 -14 6 -11 13 2 6 13 11 23 9
15 -2 16 -1 5 7 -25 16 6 43 41 36 17 -4 28 -2 28 4 0 13 10 14 28 2z m-789
-31 c37 -19 163 -40 182 -29 11 5 19 8 19 5 0 -2 3 -11 6 -19 3 -9 0 -15 -8
-14 -38 1 -59 -4 -52 -14 4 -7 -2 -9 -17 -7 -20 2 -24 -2 -27 -28 -2 -22 -9
-34 -23 -37 -24 -6 -25 11 -1 29 13 10 14 16 5 24 -8 9 -18 7 -40 -9 -40 -29
-79 -36 -86 -17 -5 13 1 16 28 16 45 0 47 26 3 36 -18 4 -39 7 -45 5 -7 -1
-13 3 -13 9 0 5 7 10 15 10 9 0 15 9 15 25 0 27 10 31 39 15z m-3249 -12 c24
-15 26 -28 5 -28 -8 0 -15 4 -15 8 0 5 -7 9 -15 9 -10 0 -15 -8 -13 -21 2 -17
12 -22 57 -28 53 -6 81 -21 67 -35 -4 -4 -11 -1 -16 7 -6 10 -12 11 -22 2 -18
-15 -123 -31 -140 -21 -7 4 -35 2 -61 -4 -37 -8 -56 -8 -84 2 -22 8 -38 10
-42 4 -14 -22 -64 -30 -93 -15 -29 14 -37 31 -15 33 6 1 41 3 77 4 62 3 221
13 248 17 9 1 9 5 2 12 -5 5 -10 16 -10 24 0 8 -7 20 -16 27 -14 10 -10 12 25
13 23 1 50 -4 61 -10z m2075 -10 c-6 -17 -4 -20 9 -15 11 5 16 1 16 -13 0 -10
5 -30 12 -44 9 -22 7 -33 -13 -70 l-23 -45 22 -24 c26 -28 28 -37 6 -37 -8 0
-12 -4 -9 -10 12 -19 -13 -10 -61 23 -50 35 -73 62 -61 73 4 4 15 0 24 -8 10
-8 26 -18 35 -21 22 -8 35 11 13 19 -11 5 -15 14 -11 28 7 28 -15 101 -25 84
-7 -10 -11 -10 -21 0 -17 17 3 36 39 38 25 1 48 24 23 24 -6 0 -8 5 -5 10 3 6
13 10 21 10 11 0 13 -6 9 -22z m4666 -159 c13 -6 19 -18 17 -32 -2 -17 3 -22
27 -24 44 -4 66 7 38 18 -25 9 -31 29 -10 29 20 0 37 -22 37 -47 0 -13 4 -23
9 -23 23 0 41 14 41 32 0 14 5 18 16 14 9 -3 20 -6 25 -6 5 0 9 -4 9 -10 0 -5
-7 -10 -15 -10 -8 0 -15 -4 -15 -10 0 -5 9 -10 20 -10 11 0 19 6 18 13 -2 6 4
12 12 12 8 0 16 -10 18 -22 2 -16 -2 -23 -12 -23 -9 0 -16 -4 -16 -10 0 -21
45 -3 50 21 l6 24 6 -22 c3 -13 2 -26 -3 -29 -5 -3 -9 -10 -9 -16 0 -6 7 -5
18 4 10 10 31 14 55 12 31 -3 37 0 37 15 0 16 5 18 33 12 52 -12 77 -33 77
-63 0 -15 -5 -30 -10 -33 -16 -10 -49 5 -44 19 3 8 -4 16 -16 19 -17 4 -20 2
-14 -15 5 -16 2 -19 -13 -16 -10 2 -18 10 -18 17 0 8 -6 16 -14 19 -9 3 -11 0
-6 -8 11 -18 -42 -10 -210 30 -176 41 -175 41 -175 90 0 44 2 45 31 29z
m-1834 -115 c3 -8 11 -14 19 -14 8 0 14 -4 14 -10 0 -5 -4 -10 -9 -10 -5 0
-11 -9 -14 -20 -3 -11 -10 -20 -17 -20 -6 0 -8 4 -5 10 3 6 -1 7 -9 4 -9 -3
-16 -17 -16 -30 0 -12 -6 -27 -14 -31 -8 -4 -15 -17 -18 -28 -2 -11 -9 -21
-16 -21 -6 -1 -17 -2 -24 -3 -6 0 -3 -10 8 -23 l19 -21 -32 6 c-25 5 -33 3
-33 -8 0 -8 -9 -15 -20 -15 -11 0 -23 -7 -26 -15 -4 -9 -19 -15 -36 -15 -35 0
-34 -22 3 -30 17 -4 26 -15 30 -35 5 -25 7 -27 13 -12 8 18 56 24 56 7 0 -5 7
-7 16 -3 11 4 14 13 10 29 -6 23 1 29 31 25 6 -1 13 13 15 30 2 18 8 34 14 36
8 3 11 -15 8 -58 -1 -33 -4 -62 -6 -62 -38 -19 -43 -26 -40 -61 4 -42 -11 -47
-52 -15 -22 17 -26 18 -26 4 0 -8 7 -18 15 -21 14 -6 13 -8 -2 -20 -24 -18
-27 -18 -55 11 -24 23 -25 29 -16 71 6 25 8 48 5 50 -3 3 -23 7 -46 9 -40 4
-41 3 -41 -26 0 -16 -4 -29 -10 -29 -16 0 -50 33 -50 48 0 24 44 62 71 62 33
0 40 7 29 34 -11 30 4 56 17 31 9 -16 12 -14 26 14 14 28 14 33 1 38 -7 3 -14
11 -14 19 0 18 9 18 30 -1 17 -15 47 -11 85 12 16 9 18 14 8 24 -7 7 -13 27
-13 44 0 24 2 27 11 15 8 -11 12 -12 16 -2 2 6 14 12 25 12 13 0 18 5 15 14
-4 9 2 14 20 14 13 0 27 -7 30 -14z m-4955 -43 c-3 -19 0 -22 16 -17 24 8 36
-7 27 -33 -7 -22 -53 -44 -87 -41 -71 6 -90 1 -101 -30 -10 -26 -17 -30 -47
-30 -33 1 -131 39 -101 40 8 0 12 2 9 5 -3 3 -27 1 -53 -5 -26 -6 -49 -9 -51
-7 -2 2 2 15 9 30 12 27 32 36 39 17 2 -6 16 -6 40 0 28 8 51 7 93 -4 56 -14
125 -11 125 6 0 5 9 4 21 -2 27 -15 38 -4 17 16 -18 18 -75 25 -100 12 -13 -6
-18 -5 -18 7 0 8 5 15 11 15 6 0 9 6 6 14 -10 26 17 24 40 -3 18 -21 22 -23
23 -8 0 9 7 17 15 17 8 0 15 4 15 9 0 10 28 20 45 16 6 -1 9 -12 7 -24z m3960
-15 c4 -6 8 -23 8 -38 0 -16 5 -28 10 -28 17 0 11 -17 -7 -23 -10 -2 -26 -8
-35 -12 -13 -5 -18 -2 -18 8 0 17 -18 33 -27 24 -2 -3 -2 -15 2 -26 4 -14 15
-21 33 -21 24 0 21 -4 -28 -36 -30 -19 -67 -38 -82 -41 -16 -3 -28 -9 -28 -13
0 -8 -45 -30 -61 -30 -6 0 -7 4 -4 10 3 5 -2 21 -11 35 -13 20 -19 23 -30 14
-10 -8 -11 -15 -4 -24 11 -13 3 -25 -17 -25 -17 0 -17 49 1 73 8 10 20 15 30
11 12 -5 16 0 16 17 0 25 20 65 20 42 0 -21 21 -15 27 7 8 30 21 24 31 -12 6
-22 5 -35 -2 -40 -15 -10 0 -22 16 -12 7 5 23 7 35 5 31 -3 47 7 34 23 -15 18
-2 56 19 56 20 0 30 19 30 56 0 18 4 22 18 17 9 -4 20 -11 24 -17z m-5025 -91
c24 -4 46 -11 49 -16 4 -6 10 -6 17 0 22 17 62 16 81 -1 11 -10 22 -14 26 -9
3 6 20 6 40 1 19 -4 26 -8 15 -9 -11 -1 -31 -8 -43 -17 -12 -8 -26 -13 -31 -9
-5 3 -13 0 -17 -6 -9 -14 16 -31 39 -25 12 3 17 -2 17 -20 0 -14 5 -23 13 -21
7 1 11 -6 9 -18 -6 -33 -17 -37 -45 -15 -25 20 -28 20 -49 6 -12 -9 -17 -16
-10 -16 6 0 12 -6 12 -13 0 -8 11 -19 25 -25 14 -6 25 -16 25 -22 0 -14 -13
-13 -35 4 -13 10 -28 11 -49 5 -48 -14 -67 -11 -73 11 -3 11 -10 21 -17 21 -6
1 -23 3 -38 5 -28 3 -38 -9 -18 -21 16 -10 12 -19 -16 -32 -24 -11 -26 -10
-39 20 -8 18 -14 28 -15 22 0 -5 -13 5 -29 23 -16 17 -34 32 -40 32 -6 0 -11
4 -11 9 0 15 -30 41 -46 41 -19 0 -18 -18 2 -22 13 -2 11 -9 -11 -32 -25 -27
-29 -28 -39 -14 -7 9 -25 20 -40 24 -23 5 -27 11 -23 31 3 18 -2 28 -19 40
-13 8 -24 19 -24 24 0 14 28 11 33 -3 4 -10 7 -10 18 0 18 17 42 15 35 -3 -9
-23 60 -19 92 5 16 13 29 17 35 11 12 -12 72 13 72 30 0 16 44 29 65 19 8 -4
34 -11 57 -15z m-3077 -2 c0 -7 -7 -16 -16 -20 -13 -5 -13 -7 -2 -14 17 -11
41 -11 34 0 -3 5 2 12 11 15 15 6 15 8 3 16 -12 8 -9 10 11 10 20 0 30 -7 39
-30 9 -21 9 -34 2 -43 -6 -6 -11 -16 -12 -22 -1 -5 -6 -17 -12 -25 -7 -11 -8
-7 -3 13 4 21 2 28 -7 25 -7 -3 -14 -19 -16 -36 -3 -30 -2 -32 30 -28 18 2 41
-2 52 -10 14 -10 23 -11 33 -2 19 15 17 -19 -2 -39 -15 -15 -11 -38 5 -28 5 3
11 1 15 -5 13 -21 26 3 24 41 -2 28 2 42 15 52 20 15 14 39 -7 31 -15 -5 -54
33 -44 43 4 3 19 1 34 -6 19 -9 29 -9 31 -2 6 17 52 13 52 -4 0 -9 11 -20 24
-25 40 -15 38 -27 -5 -44 -40 -16 -41 -17 -37 -64 3 -44 1 -47 -22 -51 -14 -1
-47 2 -75 7 -111 23 -125 24 -119 7 5 -11 -1 -15 -22 -15 -44 0 -74 11 -74 25
0 8 10 15 23 17 17 2 8 10 -40 33 -35 17 -63 33 -63 37 0 4 7 13 15 22 8 8 15
17 15 20 0 3 -7 6 -15 6 -8 0 -15 7 -15 15 0 11 7 14 25 9 19 -5 27 -2 32 12
4 11 15 25 24 32 10 7 16 19 13 26 -4 9 3 14 20 14 16 0 26 -6 26 -15z m7770
-23 l25 -19 -23 -23 c-29 -31 -30 -78 -2 -78 13 0 20 -7 20 -18 0 -23 -58 -49
-130 -57 -30 -4 -69 -11 -86 -16 -21 -7 -40 -6 -60 2 -16 7 -32 12 -36 11 -5
-1 -8 3 -8 8 0 6 6 10 14 10 10 0 16 13 18 38 3 39 5 40 67 26 30 -6 33 -5 28
9 -4 12 -1 17 9 17 11 0 15 -6 11 -19 -3 -14 -1 -18 9 -14 8 3 14 8 14 12 0 4
12 7 28 6 22 0 27 4 28 25 0 14 4 31 8 38 12 21 -3 28 -27 13 -15 -9 -18 -10
-10 -1 6 7 9 18 7 25 -4 9 2 11 19 8 14 -3 28 0 31 6 10 15 17 14 46 -9z
m3179 9 c22 -8 31 -17 31 -34 0 -13 7 -26 16 -29 13 -5 15 -1 10 19 -8 33 15
33 31 0 9 -21 9 -25 -5 -25 -13 0 -11 -4 6 -16 30 -21 52 -11 52 22 0 25 2 26
38 19 20 -3 41 -11 47 -16 5 -5 20 -9 34 -9 14 0 50 -6 80 -14 31 -8 67 -17
81 -20 14 -3 32 -10 40 -16 13 -8 12 -11 -5 -24 -17 -13 -18 -18 -7 -36 13
-21 12 -22 -20 -15 -63 13 -467 115 -469 119 0 0 -2 20 -5 44 -6 46 -3 48 45
31z m-12235 -104 c3 -8 11 -14 18 -13 8 2 14 -10 16 -30 3 -26 10 -35 36 -46
24 -10 35 -22 39 -43 5 -26 10 -29 34 -26 27 3 72 -21 61 -33 -3 -3 -24 0 -46
7 -30 9 -48 9 -73 0 -39 -14 -89 -14 -89 -1 0 5 9 18 21 28 19 18 19 20 3 36
-11 12 -25 15 -41 11 -21 -5 -23 -3 -18 18 5 19 2 25 -14 30 -16 4 -21 13 -21
36 0 22 4 29 14 25 8 -3 17 -1 21 5 9 16 32 13 39 -4z m8217 -76 c-12 -10 -27
-19 -34 -22 -6 -2 -9 -8 -5 -12 4 -4 21 0 38 8 30 16 31 15 28 -6 -3 -19 1
-22 27 -19 17 2 35 9 41 17 9 12 16 12 45 -4 21 -12 33 -25 31 -35 -2 -9 2
-16 8 -16 5 0 10 -7 10 -15 0 -8 7 -15 15 -15 8 0 15 -4 15 -9 0 -21 -13 -41
-26 -41 -8 0 -14 -5 -14 -10 0 -6 12 -4 29 4 31 17 45 52 35 91 -4 15 -2 25 5
25 12 0 51 -40 51 -52 0 -5 10 -2 23 6 20 13 69 29 92 31 6 0 16 4 23 9 15 9
132 -2 132 -13 0 -6 -69 -26 -150 -42 -81 -16 -90 -19 -90 -33 0 -8 5 -16 11
-18 16 -5 -15 -64 -44 -83 -13 -8 -36 -14 -52 -13 -17 1 -52 -2 -80 -6 -27 -4
-47 -4 -42 0 4 4 0 15 -8 24 -12 14 -25 15 -90 6 -41 -5 -75 -13 -75 -17 0 -4
-11 -6 -25 -3 -14 2 -35 0 -46 -6 -11 -6 -33 -12 -50 -12 -35 -1 -35 -5 -8
-34 l21 -22 -38 -11 c-50 -14 -97 -14 -89 -1 4 6 11 8 16 4 6 -3 17 -3 27 1
14 5 14 7 2 15 -12 8 -10 10 9 10 20 0 21 2 11 15 -9 11 -17 12 -32 4 -18 -10
-55 -15 -175 -24 -28 -2 -61 -8 -72 -14 -11 -6 -27 -11 -37 -11 -14 0 -15 2
-3 18 7 9 9 14 5 10 -5 -5 -17 4 -26 20 -10 15 -13 30 -8 33 5 3 11 25 14 47
3 35 0 42 -18 48 -20 6 -21 7 -4 19 11 9 31 11 54 8 29 -5 34 -4 29 10 -9 25
23 42 73 38 8 -1 30 -15 49 -31 18 -16 37 -27 42 -24 16 9 10 36 -10 41 -10 2
-23 15 -29 28 -15 32 6 39 59 20 23 -8 42 -15 43 -15 1 0 3 12 4 27 1 14 5 29
8 32 10 10 24 -24 19 -46 -4 -19 -1 -23 19 -23 14 0 28 -5 31 -10 10 -16 155
2 155 20 0 18 -37 20 -93 5 -73 -19 -74 -19 -52 5 10 11 22 17 26 14 17 -10 9
9 -8 22 -16 12 -16 13 -2 14 9 0 24 9 34 20 23 25 33 25 56 -2 11 -11 19 -16
19 -10 0 7 6 12 14 12 8 0 16 7 20 15 3 9 12 12 22 8 15 -6 15 -8 -5 -24z
m-6097 -18 c17 -10 46 -22 63 -26 18 -3 35 -11 39 -16 9 -14 -97 1 -121 17
-37 26 -50 18 -53 -35 -2 -27 2 -52 7 -55 13 -9 32 29 25 48 -5 13 3 16 46 16
34 0 57 -5 64 -14 10 -13 59 -21 115 -17 20 1 22 3 11 16 -7 9 -19 14 -26 11
-7 -3 -16 -1 -19 4 -4 6 12 10 36 10 25 0 50 7 61 17 17 15 18 15 18 -5 0 -17
6 -22 25 -22 17 0 29 -7 35 -22 5 -13 9 -18 9 -11 1 6 13 13 28 15 19 2 29 10
34 28 4 14 7 18 8 8 2 -28 30 -48 71 -48 21 0 42 -4 45 -10 12 -19 43 -10 52
14 13 39 41 10 45 -45 3 -37 8 -46 32 -57 25 -13 46 -19 68 -21 4 -1 5 -7 2
-15 -3 -8 -12 -12 -20 -9 -8 3 -14 1 -14 -4 0 -13 66 -43 93 -43 l21 0 -22
-16 c-28 -19 -123 -35 -138 -23 -6 5 -14 6 -17 3 -3 -4 -22 -3 -42 0 -26 5
-35 11 -31 22 3 8 -1 14 -9 14 -9 0 -15 -9 -15 -23 0 -51 -64 -76 -125 -48
-22 10 -53 24 -69 30 -22 9 -26 14 -17 25 9 11 6 15 -16 20 -71 15 -131 27
-168 32 -22 4 -47 7 -55 8 -95 14 -164 31 -294 71 -66 21 -84 30 -72 37 11 6
16 23 16 52 0 48 7 61 26 45 11 -9 16 -7 21 7 6 14 10 6 15 -31 5 -27 8 -58 9
-67 0 -24 18 -33 25 -14 3 9 15 16 25 16 15 0 19 7 19 33 0 18 -5 38 -11 44
-8 8 0 14 28 23 21 7 42 16 48 21 14 14 35 11 69 -10z m10094 -8 c-2 -20 2
-29 15 -31 15 -3 17 1 11 22 -5 20 -2 26 10 26 10 0 16 -9 16 -24 0 -17 7 -27
23 -31 20 -6 67 -26 109 -46 25 -13 39 -11 37 4 -3 26 2 37 16 37 10 0 15 -10
15 -30 0 -38 20 -40 21 -2 1 20 2 22 6 7 8 -31 23 -42 23 -17 0 12 5 22 10 22
6 0 10 -8 10 -18 0 -9 10 -22 23 -27 12 -6 21 -17 19 -27 -1 -9 3 -18 10 -21
54 -17 -67 10 -142 33 -52 16 -113 32 -135 35 l-40 7 0 -39 c0 -36 -1 -38 -30
-35 -49 5 -55 10 -55 48 0 28 3 35 15 30 9 -3 15 0 15 8 0 8 -7 16 -15 20 -21
8 -21 76 1 76 11 0 15 -8 12 -27z m-1820 -54 c28 -9 31 -16 37 -64 7 -54 2
-75 -16 -75 -6 0 -7 5 -4 10 4 6 -7 10 -24 10 -17 0 -31 5 -31 11 0 7 -11 9
-31 5 -38 -7 -81 2 -76 18 2 6 13 11 25 10 12 0 19 3 16 7 -3 5 4 17 16 29 11
11 20 27 20 35 0 18 25 19 68 4z m-2968 -61 l9 -23 0 23 c1 25 21 31 21 6 0
-11 6 -15 20 -11 11 3 27 -1 35 -9 9 -9 23 -12 40 -8 24 6 25 4 20 -19 -6 -20
-2 -26 19 -31 36 -9 32 -23 -9 -30 -34 -7 -35 -8 -35 -51 0 -35 -4 -45 -16
-45 -14 0 -15 7 -10 40 l6 41 -37 -7 c-21 -4 -47 -8 -58 -9 -16 -1 -20 -9 -21
-36 -1 -56 -3 -59 -34 -59 -19 0 -34 7 -42 20 -7 11 -22 21 -33 21 -12 1 -9 4
10 8 28 6 30 10 30 49 1 24 -3 46 -7 48 -5 3 -6 10 -3 15 8 12 -22 12 -46 -1
-15 -8 -19 -7 -19 4 0 18 33 29 83 28 34 -2 38 1 44 28 7 36 20 39 33 8z
m-6636 -10 c2 -7 9 -30 15 -50 10 -32 10 -41 -3 -60 -9 -12 -16 -18 -16 -14 0
5 -3 7 -6 3 -11 -10 26 -39 41 -33 10 4 15 -1 15 -15 0 -11 -4 -18 -9 -14 -5
3 -12 1 -15 -4 -4 -5 2 -12 11 -15 10 -3 -6 -2 -36 1 -29 3 -78 16 -108 29
-29 13 -60 24 -68 24 -19 0 -26 15 -18 36 6 15 7 15 14 -4 12 -31 74 -27 89 6
5 13 14 21 19 17 6 -3 21 6 35 20 20 20 24 32 19 55 -5 29 14 45 21 18z m6336
-85 c0 -14 10 -28 26 -36 l26 -14 -30 -12 c-41 -17 -50 -59 -15 -72 38 -14 53
-11 65 16 8 19 14 22 20 13 24 -38 11 -47 -115 -79 -26 -6 -50 -16 -53 -20 -3
-5 -12 -9 -20 -9 -8 0 -12 4 -9 10 4 6 -34 7 -105 3 l-111 -6 6 36 c7 36 7 37
-41 57 -33 15 -44 24 -35 29 10 6 9 10 -3 14 -20 8 -21 33 -2 40 8 3 16 18 18
34 3 24 8 28 33 28 25 0 30 -5 36 -35 4 -19 3 -40 -2 -47 -7 -8 -4 -13 10 -18
12 -3 21 -15 21 -25 0 -13 -5 -17 -15 -14 -8 4 -15 1 -15 -5 0 -17 28 -13 38
5 8 15 11 15 34 0 24 -16 24 -15 24 18 0 25 -6 38 -25 50 l-26 16 23 6 c12 4
22 10 22 15 0 5 10 9 23 9 25 1 50 17 60 40 5 9 6 7 3 -6 -3 -18 2 -21 39 -22
38 0 43 2 43 24 0 13 5 31 12 39 12 14 15 11 26 -22 8 -21 14 -48 14 -60z
m2437 75 c2 6 9 12 15 12 7 0 8 -22 3 -64 -7 -66 2 -88 25 -61 15 18 40 20 41
3 0 -10 2 -10 6 0 7 19 23 14 23 -7 0 -23 18 -37 43 -33 32 6 17 -15 -32 -41
-52 -29 -112 -35 -129 -14 -13 15 -14 127 -1 127 5 0 9 7 9 15 0 8 -9 15 -19
15 -27 0 -34 15 -19 39 9 15 15 17 21 8 7 -9 10 -9 14 1z m-6137 -39 c-16 -29
-8 -33 18 -9 20 19 26 18 23 -2 0 -5 10 -8 23 -8 18 0 26 6 29 23 4 22 4 22
15 -3 6 -14 11 -19 11 -12 1 16 21 16 21 -1 0 -7 15 -18 33 -25 29 -12 30 -14
15 -26 -20 -15 -14 -26 14 -26 10 0 18 -5 18 -11 0 -8 4 -8 14 0 8 6 20 10 27
9 8 -2 15 7 17 19 2 16 12 24 37 29 19 3 38 3 44 -1 7 -3 11 2 11 14 0 12 5
21 10 21 6 0 10 -10 10 -22 0 -13 4 -29 9 -37 8 -12 12 -12 25 2 24 23 62 7
58 -24 -1 -13 -8 -30 -16 -37 -18 -18 -94 -21 -141 -6 -60 20 -75 18 -75 -11
0 -23 4 -25 43 -26 l42 -1 -32 -9 c-50 -14 -44 -33 14 -44 21 -3 33 0 36 9 4
9 14 12 28 9 18 -5 21 -3 16 11 -5 14 -3 15 13 6 29 -16 35 -32 16 -46 -17
-12 -175 -12 -341 1 -27 2 -58 4 -67 4 -10 1 -18 7 -18 15 0 11 12 14 48 13
48 -1 128 9 143 19 14 8 11 84 -3 84 -19 0 -33 -12 -41 -33 -5 -14 -14 -16
-44 -11 -29 4 -49 0 -86 -20 -47 -25 -48 -26 -33 -4 15 21 15 60 1 105 -7 20
-35 3 -48 -28 -9 -20 -16 -26 -26 -20 -10 6 -10 13 -3 28 6 11 8 29 5 41 -5
21 9 29 42 22 6 -1 7 2 3 6 -5 4 2 13 15 20 33 18 39 16 27 -7z m-2384 -24
c-4 -12 -2 -13 13 -5 18 9 19 6 14 -30 -6 -40 3 -50 25 -28 19 19 15 -23 -4
-50 -19 -28 -13 -38 15 -22 19 10 21 8 21 -22 0 -18 4 -40 10 -48 8 -12 10
-12 16 3 3 9 15 17 26 17 10 0 17 4 13 10 -3 5 -13 6 -21 3 -9 -3 -20 0 -25 8
-10 17 17 50 36 43 7 -3 16 -1 19 4 4 7 17 6 35 -1 24 -9 28 -14 20 -28 -5
-11 -16 -15 -29 -12 -14 4 -20 0 -20 -11 0 -27 54 -21 70 9 15 28 30 33 30 10
0 -8 6 -15 14 -15 22 0 33 -22 38 -77 5 -50 4 -53 -18 -53 -40 0 -54 11 -54
41 0 22 -5 29 -20 29 -11 0 -20 -7 -20 -15 0 -9 -10 -15 -26 -15 -32 0 -113
18 -136 31 -10 5 -25 9 -34 9 -11 0 -14 5 -10 16 5 14 4 15 -8 5 -11 -9 -20
-10 -33 -2 -16 9 -14 11 15 17 32 7 45 24 17 24 -8 0 -15 5 -15 12 0 6 -9 2
-20 -10 -12 -12 -28 -21 -38 -21 -16 1 -16 2 1 6 21 5 22 17 2 33 -8 7 -13 16
-10 20 3 5 -1 11 -7 13 -8 3 -5 6 5 6 13 1 17 7 15 23 -2 11 3 23 10 25 7 3
12 -5 12 -22 0 -23 2 -25 15 -15 9 8 12 22 8 41 -4 22 -1 34 13 44 24 18 27
18 20 0z m5037 -40 c41 -43 81 -60 97 -39 7 8 30 14 51 14 38 0 58 -13 39 -25
-8 -5 -7 -11 1 -21 9 -11 9 -17 -1 -29 -20 -25 -43 -19 -36 9 5 20 1 25 -21
29 -46 9 -55 0 -48 -52 9 -67 15 -81 30 -81 27 0 25 -20 -2 -26 -15 -4 -33
-14 -39 -22 -12 -17 -50 -12 -46 6 4 21 -99 3 -122 -20 -15 -17 -16 -22 -5
-29 11 -7 10 -9 -3 -9 -10 0 -18 -5 -18 -11 0 -6 -7 -9 -15 -5 -8 3 -25 1 -37
-3 -23 -9 -23 -9 5 -16 28 -7 37 -21 15 -22 -7 -1 -28 -3 -45 -6 -30 -4 -32
-3 -27 19 4 14 2 24 -5 24 -6 0 -8 7 -5 15 4 10 13 13 25 10 12 -4 21 -1 25
10 5 12 9 13 20 4 11 -9 14 -7 14 10 0 21 -3 21 -160 20 -150 -1 -160 -2 -160
-20 0 -10 -7 -19 -15 -19 -8 0 -15 -5 -15 -11 0 -6 -7 -4 -15 5 -8 8 -15 22
-15 30 0 9 -4 17 -10 17 -5 1 -14 3 -20 4 -5 1 -19 3 -30 4 -11 0 -20 5 -20 9
0 5 14 7 30 4 23 -3 30 0 30 12 0 10 -9 16 -24 16 -14 0 -28 5 -32 12 -5 7 -2
9 8 6 8 -4 21 -2 29 3 10 6 2 9 -26 10 -60 2 -90 13 -87 32 2 9 -2 17 -8 17
-5 0 -10 -9 -10 -21 0 -12 -5 -19 -12 -16 -7 2 -12 12 -10 22 2 9 -1 14 -6 11
-5 -3 -22 -1 -38 4 -28 8 -28 9 -6 15 23 8 28 20 12 30 -5 3 -10 2 -10 -4 0
-5 -25 -10 -55 -10 -57 0 -72 12 -33 25 37 12 151 6 159 -8 6 -9 10 -8 15 5 3
9 10 15 14 12 5 -3 12 0 15 6 4 6 18 8 32 4 37 -9 66 3 60 26 -3 12 0 19 9 19
8 0 15 -11 15 -27 2 -24 2 -25 6 -5 6 33 20 27 20 -9 0 -43 40 -68 50 -30 4
15 18 19 70 24 70 7 83 4 83 -18 0 -11 -18 -15 -72 -17 l-73 -3 -3 -51 c-3
-51 -3 -51 24 -46 15 3 29 0 34 -8 5 -9 9 -9 14 -1 4 6 2 11 -3 11 -6 0 -11 5
-11 11 0 6 9 8 23 3 12 -4 27 -6 32 -5 53 9 87 6 104 -10 18 -17 19 -17 14 24
-3 23 -7 43 -8 45 -1 1 -17 4 -35 7 -43 5 -51 15 -11 15 29 0 31 2 25 25 -4
17 -2 25 7 26 80 8 95 7 112 -9 17 -16 20 -16 31 0 7 9 25 18 41 20 25 2 30 7
30 31 -1 15 1 27 3 27 1 0 17 -16 35 -35z m3280 -31 c5 -53 27 -101 27 -61 0
19 15 23 26 6 4 -8 9 -7 15 2 6 9 9 2 9 -23 0 -20 2 -43 6 -51 3 -9 -5 -18
-23 -25 -58 -22 -170 -51 -213 -55 -25 -2 -37 -2 -27 0 14 4 16 7 6 19 -20 24
-38 16 -41 -18 -2 -18 -8 -33 -15 -33 -6 0 -15 -3 -19 -8 -11 -11 -94 -9 -94
3 0 10 21 14 48 11 6 -1 12 4 12 11 0 9 -14 13 -45 13 -25 0 -45 -3 -45 -7 0
-5 -4 -8 -10 -8 -5 0 -8 13 -7 30 2 34 2 34 27 20 29 -15 32 4 6 33 -26 28
-24 37 9 37 15 0 26 11 39 40 17 40 36 53 36 26 0 -8 -8 -17 -17 -19 -15 -4
-15 -6 5 -12 13 -5 25 -19 30 -39 8 -29 11 -31 58 -31 27 0 57 3 66 7 10 5 22
2 32 -7 12 -12 17 -13 23 -3 9 14 53 19 53 6 0 -4 9 -8 20 -8 16 0 20 7 20 30
0 25 -4 30 -25 30 -50 0 -71 81 -33 125 24 27 35 15 41 -41z m-10470 -54 c7 1
37 9 67 20 37 13 54 24 52 34 -3 17 14 30 29 21 7 -5 5 -15 -6 -32 -10 -14
-14 -34 -11 -48 8 -31 -12 -39 -102 -40 l-74 -1 7 53 c3 29 5 53 3 53 -2 0
-31 -9 -63 -21 -33 -12 -71 -23 -85 -25 -14 -2 -41 -5 -60 -8 -19 -3 -26 -3
-15 0 11 3 29 9 40 13 34 14 118 39 152 46 18 4 36 12 40 18 5 7 9 -9 11 -35
2 -29 8 -48 15 -48z m7783 68 c29 -10 33 -17 45 -71 7 -32 20 -67 30 -76 18
-16 14 -17 -59 -19 -43 0 -69 2 -58 6 17 8 17 9 2 25 -16 16 -16 17 2 17 18 0
30 32 33 87 1 22 -32 10 -45 -15 -12 -23 -21 -29 -36 -25 -15 4 -18 9 -10 18
8 10 4 15 -20 20 -30 7 -41 29 -17 38 23 10 101 7 133 -5z m-2296 -18 c22 -22
45 -26 55 -10 13 21 32 9 32 -19 0 -20 -6 -31 -18 -34 -22 -6 -14 -52 13 -71
11 -8 17 -20 13 -26 -5 -8 7 -10 41 -8 45 3 76 27 37 29 -10 1 -4 4 12 8 17 3
31 12 31 19 3 26 5 26 18 -3 12 -29 13 -29 20 -7 4 12 11 22 16 22 5 0 16 -10
25 -22 15 -22 16 -21 13 30 -2 29 -7 52 -11 51 -27 -4 -47 -13 -47 -22 0 -5
-9 -2 -20 8 -22 20 -17 43 6 24 11 -9 14 -7 14 10 0 19 6 21 49 21 72 0 111
-10 112 -29 1 -13 2 -13 6 2 5 21 43 23 43 2 0 -12 4 -11 20 5 11 11 20 26 20
33 0 8 3 9 8 1 4 -6 30 -15 57 -20 44 -8 50 -12 47 -32 -2 -16 2 -22 17 -22
11 0 23 -4 26 -10 4 -6 -5 -10 -20 -10 -25 0 -26 -2 -20 -32 4 -18 14 -40 21
-49 23 -26 -1 -37 -109 -50 -53 -7 -97 -16 -97 -21 0 -4 6 -8 13 -9 6 0 -8 -7
-32 -14 -25 -8 -49 -11 -55 -7 -12 7 -19 8 -98 10 -98 3 -66 22 40 24 l97 1
-85 8 c-47 3 -139 10 -205 14 -111 7 -122 9 -142 33 -26 28 -28 43 -11 60 18
18 25 15 34 -15 7 -27 7 -27 15 12 4 22 5 43 3 46 -2 3 -38 9 -80 13 -80 6
-97 12 -77 24 8 5 0 13 -20 22 l-32 15 45 6 c97 13 139 10 160 -11z m-2740
-117 c11 -10 20 -27 20 -38 0 -26 18 -45 36 -38 10 4 14 -4 15 -28 1 -19 1
-38 0 -42 -1 -5 7 -11 18 -14 11 -3 22 -11 25 -18 4 -10 -4 -12 -32 -9 -65 8
-147 26 -164 35 -10 5 -26 9 -35 9 -27 0 -47 16 -38 30 6 10 11 10 19 -3 14
-17 66 -12 66 7 0 7 11 23 24 35 20 19 23 30 19 57 -6 38 -2 41 27 17z m7130
-22 c0 -11 5 -21 12 -23 6 -2 12 -20 12 -40 1 -33 3 -35 17 -22 24 22 38 17
36 -13 -2 -24 2 -27 31 -29 52 -3 60 -20 15 -33 -21 -7 -54 -17 -73 -22 -54
-16 -94 -9 -98 19 -2 15 2 22 12 22 20 0 21 36 3 55 -8 7 -25 15 -38 17 -23 4
-23 5 6 13 44 12 56 24 45 45 -9 17 -4 30 12 30 4 0 8 -9 8 -19z m-6757 -64
c-1 -26 2 -47 7 -47 4 0 6 -9 3 -20 -7 -24 12 -27 26 -3 8 16 11 15 30 -7 18
-23 20 -23 15 -4 -4 17 0 23 20 28 32 8 109 -3 118 -18 8 -13 -25 -46 -47 -46
-19 0 -19 -17 -1 -36 21 -20 26 -18 26 12 0 21 4 24 20 19 15 -5 20 -2 20 14
0 27 13 33 36 16 18 -14 18 -14 0 -15 -14 0 -17 -5 -12 -22 3 -13 6 -29 6 -36
0 -7 11 -18 25 -24 14 -6 25 -15 25 -19 0 -11 -90 -4 -175 14 -38 8 -87 18
-107 21 -32 6 -38 11 -38 31 0 26 -15 41 -25 25 -6 -10 -43 6 -56 24 -13 17
-8 76 6 76 21 0 28 19 14 36 -6 8 -9 18 -5 22 4 4 14 -2 22 -13 14 -19 15 -19
21 3 10 39 28 18 26 -31z m6457 -3 c0 -44 25 -94 48 -95 10 -1 7 -4 -8 -8 -20
-5 -26 -14 -28 -41 -4 -40 -15 -50 -55 -50 -19 0 -30 -7 -37 -22 -5 -13 -9
-17 -9 -10 -1 6 -10 12 -22 12 -11 0 -17 -4 -14 -10 3 -5 1 -10 -4 -10 -6 0
-11 5 -11 11 0 6 -8 8 -17 5 -33 -11 -183 -15 -188 -5 -10 16 -25 10 -25 -10
0 -12 -9 -21 -25 -25 -14 -4 -25 -14 -25 -22 0 -14 -3 -14 -15 -4 -8 7 -15 24
-15 39 l0 26 -18 -22 c-13 -16 -27 -21 -57 -20 -39 1 -39 2 -12 11 15 5 27 14
27 19 0 5 -8 6 -17 2 -21 -8 -22 -8 -49 -6 -14 1 -23 9 -26 25 -4 21 -1 24 21
23 21 -2 26 2 24 20 -3 30 15 41 80 49 44 5 57 4 57 -7 0 -8 8 -4 21 9 13 15
18 29 14 42 -8 26 4 47 16 29 8 -11 12 -11 23 4 13 17 14 14 9 -22 l-6 -41 37
0 c35 0 53 -20 19 -20 -16 -1 -16 -2 1 -15 11 -8 28 -13 37 -10 10 3 20 1 24
-5 11 -18 27 -11 20 9 -7 23 4 71 16 71 4 0 9 -19 11 -42 3 -41 4 -43 36 -43
17 0 32 -3 32 -7 0 -5 11 -8 25 -8 23 0 24 3 27 73 3 64 5 73 26 82 19 8 22
15 18 38 -4 17 -2 26 4 22 6 -3 10 -22 10 -41z m3781 -54 c10 -6 19 -17 19
-25 0 -8 5 -15 10 -15 6 0 10 5 10 10 0 6 7 10 15 10 9 0 15 -9 15 -25 0 -18
5 -25 20 -25 11 0 23 6 26 14 4 11 12 12 37 3 59 -19 95 -37 101 -50 5 -9 7
-9 12 1 8 18 24 15 24 -5 0 -12 3 -14 11 -6 8 8 28 6 75 -7 35 -10 67 -21 72
-24 10 -6 3 -74 -9 -82 -5 -3 -42 6 -83 20 -41 14 -83 26 -95 26 -11 0 -23 5
-26 10 -10 16 -45 12 -45 -5 0 -8 -5 -15 -11 -15 -6 0 -9 -7 -5 -15 7 -18 -3
-19 -27 -1 -10 8 -19 27 -20 44 -1 23 -8 33 -24 37 -36 9 -38 7 -34 -32 3 -33
1 -35 -21 -31 -12 3 -31 9 -41 13 -15 6 -18 4 -15 -11 2 -12 -3 -19 -12 -19
-10 0 -14 8 -12 22 2 15 -2 23 -11 23 -19 0 -28 36 -17 66 6 14 6 26 0 29 -6
4 -10 22 -10 41 0 30 3 34 26 34 14 0 34 -5 45 -10z"/>
<path d="M6110 5088 c0 -7 -3 -56 -6 -108 -7 -117 -11 -418 -6 -471 l4 -40 18
33 c29 55 47 297 41 553 -1 25 -5 45 -11 45 -6 0 -10 -45 -10 -115 0 -63 -4
-115 -8 -115 -4 0 -7 52 -6 115 2 66 -1 115 -7 115 -5 0 -9 -6 -9 -12z"/>
<path d="M8390 2782 c0 -5 -25 -8 -55 -7 -40 0 -55 -3 -55 -12 0 -10 -5 -11
-17 -5 -34 18 -106 9 -131 -15 -14 -15 -17 -23 -8 -23 7 0 19 -7 26 -15 10
-12 10 -15 -4 -15 -9 0 -16 -4 -16 -9 0 -10 32 -10 40 0 3 3 24 8 48 12 32 4
42 2 42 -9 0 -8 -11 -14 -27 -15 -38 -1 -70 -14 -56 -22 6 -4 23 -3 38 3 14 5
35 10 45 10 10 0 31 5 47 11 26 10 27 12 8 19 -13 6 -15 9 -5 9 8 0 23 -6 33
-13 18 -14 71 -10 61 5 -3 5 0 9 5 9 6 0 11 5 11 10 0 6 -11 10 -25 10 -39 0
-30 18 13 25 50 9 61 13 34 14 -12 1 -25 8 -28 16 -6 16 -24 21 -24 7z"/>
<path d="M3501 1431 c-7 -5 -10 -14 -7 -20 4 -6 12 -9 17 -6 5 4 9 -3 9 -14 0
-12 5 -19 13 -16 6 3 18 1 26 -4 12 -8 12 -12 2 -25 -10 -12 -9 -18 8 -35 12
-12 21 -26 21 -32 0 -6 8 -8 19 -4 13 4 27 -1 40 -14 22 -22 57 -29 45 -10 -5
8 1 10 19 5 25 -6 25 -5 16 26 -5 18 -9 35 -9 37 0 2 -10 1 -23 -3 -27 -6 -55
11 -123 77 -53 51 -52 51 -73 38z"/>
<path d="M0 2415 c0 -7 6 -16 13 -18 10 -4 10 -6 0 -6 -9 -1 -13 -19 -13 -57
l0 -56 63 7 c71 8 72 9 64 29 -5 12 -15 14 -38 9 l-32 -6 19 26 c20 28 49 35
57 15 3 -7 6 -3 6 10 1 17 -5 22 -23 22 -14 0 -28 5 -31 10 -4 6 15 10 51 10
90 0 56 11 -45 15 -70 2 -91 0 -91 -10z"/>
</g>
</svg>
